<?xml version="1.0" encoding="UTF-8"?>
<!DOCTYPE svg PUBLIC "-//W3C//DTD SVG 1.1//EN" "http://www.w3.org/Graphics/SVG/1.1/DTD/svg11.dtd">
<!-- Creator: CorelDRAW -->
<svg xmlns="http://www.w3.org/2000/svg" xml:space="preserve" width="156.31mm" height="128.477mm" version="1.1" style="shape-rendering:geometricPrecision; text-rendering:geometricPrecision; image-rendering:optimizeQuality; fill-rule:evenodd; clip-rule:evenodd"
viewBox="0 0 1902.26 1563.55"
 xmlns:xlink="http://www.w3.org/1999/xlink"
 xmlns:xodm="http://www.corel.com/coreldraw/odm/2003">
 <defs>
  <style type="text/css">
   <![CDATA[
    .str1 {stroke:#8D33E8;stroke-width:8.24;stroke-miterlimit:22.9256}
    .str0 {stroke:#373435;stroke-width:5.15;stroke-miterlimit:22.9256}
    .str3 {stroke:#2E71F0;stroke-width:5.15;stroke-miterlimit:22.9256}
    .str4 {stroke:#000F30;stroke-width:2.06;stroke-miterlimit:22.9256}
    .str2 {stroke:#0051FF;stroke-width:2.06;stroke-miterlimit:22.9256}
    .str6 {stroke:#833BEB;stroke-width:2.06;stroke-miterlimit:22.9256}
    .str5 {stroke:#F9A715;stroke-width:2.06;stroke-miterlimit:22.9256}
    .fil5 {fill:none}
    .fil6 {fill:#4675BD}
    .fil4 {fill:#833BEB}
    .fil1 {fill:#8B69EE}
    .fil3 {fill:#8D33E8}
    .fil0 {fill:#F9A715}
    .fil2 {fill:#FDFDFF}
   ]]>
  </style>
 </defs>
 <g id="Camada_x0020_1">
  <metadata id="CorelCorpID_0Corel-Layer"/>
  <path class="fil0" d="M193.68 717.42c34.06,-4.59 116.34,-72.77 137.24,-91.29 32.66,-28.94 74.12,-81.76 99.76,-128.87 74.12,-136.12 75.51,-235.07 55.62,-379.92l-31.75 23.87c-65.07,54.73 -131.02,145.76 -170.87,218.75 -66.87,122.48 -78.83,222.95 -90,357.46z"/>
  <g id="_2008088722320">
   <path class="fil1" d="M875.44 555.56c-0,-50.25 50.45,-80.59 50.44,-38.64l0.02 115.93c0,23.36 -14.31,25.78 -20.15,12.51 -2.84,-6.45 -1.33,-31.68 -1.33,-40.29 -12.58,-1.98 -17.22,-2.63 -25.32,-6.7 -5.03,-17.39 -3.65,-24.53 -3.66,-42.82zm-53.68 -57.61c17.41,6.88 3.16,27.48 12.88,46.07 6.97,-12.44 -3.82,-33.16 6.44,-46.07 10.52,4 8.19,6.06 11.15,20.13 6.08,28.9 12.63,39.91 -10.05,54.66 -0.59,0.39 -1.53,0.93 -2.07,1.28l-6.29 4.1c0.01,16.28 7.8,75.7 -11.6,73.51 -16.59,-1.87 -9.31,-56.92 -9.3,-73.51 -0.66,-0.52 -1.64,-1.09 -2.11,-1.39 -0.46,-0.3 -1.53,-1.01 -2.09,-1.38 -16.13,-10.36 -21.95,-13.45 -18.98,-35.43 2.62,-19.38 5.06,-37.84 15.92,-41.97 10.27,12.93 -0.53,33.64 6.44,46.07 7.74,-14.81 -0.76,-34.11 9.66,-46.07zm11.53 -128.12c-119.88,16.77 -195.16,119.44 -181.33,229.99 12.99,103.81 107.22,195.28 229.82,179.96 105.33,-13.16 195.19,-107.19 180.55,-230.04 -12.33,-103.46 -108.93,-196.71 -229.04,-179.91z"/>
   <path class="fil2" d="M875.44 555.56c0,18.29 -1.37,25.43 3.66,42.82 8.1,4.07 12.75,4.72 25.32,6.7 -0,8.61 -1.51,33.84 1.33,40.29 5.84,13.27 20.16,10.85 20.15,-12.51l-0.02 -115.93c0,-41.94 -50.45,-11.61 -50.44,38.64z"/>
   <path class="fil2" d="M812.92 578.1c-0.01,16.59 -7.29,71.64 9.3,73.51 19.4,2.19 11.61,-57.23 11.6,-73.51l6.29 -4.1c0.54,-0.35 1.48,-0.89 2.07,-1.28 22.68,-14.75 16.13,-25.76 10.05,-54.66 -2.96,-14.07 -0.63,-16.13 -11.15,-20.13 -10.26,12.92 0.53,33.63 -6.44,46.07 -9.72,-18.59 4.53,-39.19 -12.88,-46.07 -10.42,11.95 -1.92,31.25 -9.66,46.07 -6.97,-12.43 3.82,-33.15 -6.44,-46.07 -10.86,4.13 -13.3,22.59 -15.92,41.97 -2.97,21.98 2.85,25.06 18.98,35.43 0.57,0.37 1.63,1.08 2.09,1.38 0.47,0.3 1.45,0.88 2.11,1.39z"/>
  </g>
  <g id="_2008088725440">
   <path class="fil0" d="M1011.49 956.4c-12.91,-21.19 -7.9,-66.18 20.6,-52.16 10.76,5.29 12.95,22.48 8.84,37.83 -4.43,16.51 -11.94,16.89 -29.44,14.33zm-1.08 -67.31l-6.53 -4.61c-9.95,-4.59 -18.37,-3.92 -31.4,-1.11l-0.03 138.62 32.36 1.17 -0 -49.1c42.43,15.68 68.88,-0.56 70.13,-43.87 1.23,-42.62 -38.72,-71.31 -64.53,-41.1z"/>
   <path class="fil0" d="M776.91 943.01c-10.27,-44.05 30.43,-52.21 36.77,-25.67 9.85,41.22 -30.24,53.67 -36.77,25.67zm37.02 -56.51c-38.43,-16.82 -69.5,-1.15 -70.52,43.67 -0.97,42.41 40.75,71.07 65.62,40.83 0.68,0.59 1.62,0.68 2.01,1.82 0.57,1.67 3.13,2.5 4.34,3.05 9.12,4.15 17.01,2.59 30.48,2.32l0.01 -141.18 -31.93 -0.03 -0.01 49.52z"/>
   <path class="fil0" d="M550.96 973.92l0.04 -26.37c-16.26,1.12 -28.58,11.67 -49.55,4.49 -31.82,-10.9 -32.61,-68.58 0.53,-81.97 21.85,-8.82 32.7,2.21 48.95,3.96l-0.15 -29c-56.98,-20.48 -105.97,13.23 -107.17,66.31 -1.35,59.46 53.28,87.85 107.35,62.58z"/>
   <polygon class="fil0" points="584.27,1171.46 619.15,1171.33 664.91,1037.17 633.05,1036.48 602.13,1140.97 571.22,1036.84 538.71,1036.32 "/>
   <path class="fil0" d="M1175.91 943.01c-11.1,-43.43 30.9,-53.39 38.97,-25.01 11.76,41.38 -31.89,52.71 -38.97,25.01zm1.73 -61.91c-61.25,17.85 -40.47,120.52 36.14,98.51 57.17,-16.43 43.27,-121.64 -36.14,-98.51z"/>
   <path class="fil0" d="M912.6 958.18c-19.9,2.96 -21.74,-0.37 -18.93,-18.43 7.65,-3.19 17.44,-5.65 27.89,-5.31 -0.56,15.87 -2.17,15.32 -8.96,23.74zm-40.49 -72.12l-0.15 20.54c18.98,-2.72 40.04,-18.23 49.11,4.2 -14.77,14.8 -59.3,-0.73 -58.78,41.71 0.42,34.97 41.01,37.16 57.89,16.96 4.07,11.04 4.1,9.04 30.94,8.68 0.02,-23.73 3.6,-70.54 -6.96,-85.63 -13.84,-19.77 -47.87,-16.42 -72.05,-6.47z"/>
   <path class="fil0" d="M621.13 933.32c-1.23,34.65 -33.52,36.25 -28.2,5.02l28.2 -5.02zm-49.75 -47.83l-0.19 21.47c19.29,-4.83 43.42,-18.68 49.86,8.27 -29.16,3.53 -57.62,3.66 -59.19,34.37 -1.65,32.36 36.94,43.08 54.05,21.39l6.37 4.81c9.68,4.6 16.91,3.3 28.59,1.41 0.06,-68.25 7.39,-121.04 -79.5,-91.72z"/>
   <path class="fil0" d="M948.29 1161.54c0.6,0.6 1.24,0.93 1.51,2.06 1.2,4.98 4.98,6.62 11.77,7.95 4.87,0.95 16.38,-0.2 21.58,-0.69l-0.01 -95.02 -29.82 -0.81c0,35.24 11.21,83.65 -29.17,75.02 -7.79,-18.4 -4.86,-50.35 -4.83,-74.65l-29.44 -0.39c-0.01,18.52 -2.12,67.38 3.26,81.07 9.08,23.06 41.38,25.49 55.14,5.45z"/>
   <path class="fil0" d="M1051.5 1151.81c-35.71,5.7 -31.66,-27.19 8.65,-24.53 -0.4,13.51 -2.62,17.35 -8.65,24.53zm-40.91 -72.43l-0.11 20.05c18.79,-5.81 45.19,-17.23 49.19,7.82 -19.29,10.7 -59.98,-2.5 -58.97,38.54 0.88,35.71 40.85,36.1 58.56,14.59l1.07 11.24 27.47 0.02c0.06,-65.8 8.34,-124.45 -77.21,-92.27z"/>
   <path class="fil0" d="M824.07 1053.95l-2.19 20.4c-0.83,0.12 -7.86,0.76 -8.52,0.94 -10.37,2.9 -2.19,0.21 -6.63,2.98 -0.01,29 2.89,13.44 15.51,22.54 -0.01,41.99 -4.6,91.52 51.42,70.2l-0.31 -20.54 -18.65 -0.01 -2.86 -52.48 21.51 -1.31 0.37 -20.85 -21.42 -1.32 -0.25 -27.86 -27.98 7.31z"/>
   <polygon class="fil0" points="1111.67,1171.63 1128.72,1171.64 1141.53,1171.35 1141.51,1030.35 1128.72,1029.9 1111.69,1029.97 "/>
   <path class="fil0" d="M704.83 892.92c0.61,-11.92 3.64,-13.13 -32.19,-10.21l0.01 94.5 32.03 1.11c0.08,-63.14 -7.08,-74.16 33.01,-72.12l0 -26.17c-18.5,-3.47 -25.97,1.06 -32.86,12.89z"/>
   <path class="fil0" d="M770.2 1084.09c-5.32,-4.08 -6.3,-7.04 -15.57,-8.97 -4.7,-0.98 -16.33,0.21 -21.38,0.71l-0.02 95.05 29.88 0.95c0.06,-34.67 -9.89,-82.85 32.58,-72.49l0.61 -26.35c-18.02,-2.46 -19.48,-0.61 -26.09,11.1z"/>
   <polygon class="fil0" points="1092.76,978.14 1106.18,978.54 1112.62,978.48 1124.72,977.83 1124.7,882.6 1092.77,881.77 "/>
   <polygon class="fil0" points="678.48,1170.87 690.74,1171.84 708.37,1171.68 708.39,1075 678.48,1075.38 "/>
   <path class="fil0" d="M1099.49 839.21c-21.28,11.28 -0.73,40.43 20.43,27.41 16.61,-10.23 3.3,-39.99 -20.43,-27.41z"/>
   <path class="fil0" d="M891.95 864.2l11.31 1.84c14.46,1.55 33.24,-21.25 38.84,-28.79 -47.46,-2.99 -27.92,9.8 -50.14,26.95z"/>
   <path class="fil0" d="M681.24 1055.04c0,0 0,0 0,0z"/>
  </g>
  <path class="fil3" d="M585.62 47.48c49.48,0.61 79.57,4.02 125.94,9.26 3.43,-3.29 0.66,-1.81 6.09,-4.35 4.7,-2.2 2.2,-1.27 7.51,-2.61 5.15,-1.3 14.34,-2.27 19.8,-2.97 12.76,-1.63 28.6,-3.39 39.04,-4.45 77.66,-7.91 171.84,2.15 245.57,20.65 261.29,65.58 477.81,272.61 542.98,533.66 -2.85,2.1 -40.9,-0.08 17.12,10.17 15.54,2.75 15.46,4.64 29.49,9.75 -0.7,4.89 -1.43,3.23 4.2,3.02 0,-5.14 1.16,-3.84 -4.2,-3.02 -14.64,-98.85 -78.59,-212.96 -131.05,-290.82 -27.16,-40.31 -67.33,-82.73 -100.11,-112.45 -51.1,-46.33 -59.7,-53.98 -120.04,-92.42 -196.4,-125.11 -436.68,-153.21 -662.05,-83.9 -1.56,0.48 -8.15,2.48 -9.48,3.09 -0.94,0.43 -3.64,1.82 -4.5,2.35 -5.26,3.24 -2.58,1.13 -6.32,5.03z"/>
  <path class="fil4 str0" d="M1604.88 583.24c97.96,-17.48 191.46,47.28 208.83,144.64 17.37,97.36 -47.96,190.46 -145.92,207.94 -52.87,9.43 -104.43,-5.09 -143.43,-35.76 12.2,-48.01 14.61,-99.27 5.35,-151.14 -6.44,-36.1 -18.1,-69.96 -34.03,-100.98 26.36,-32.84 64.36,-56.69 109.2,-64.69z"/>
  <ellipse class="fil5 str1" cx="877.91" cy="828.97" rx="621.02" ry="617.22"/>
  <path class="fil0" d="M773.04 124.24c181.22,6.61 316.7,33.97 462.81,133.57 14.88,10.14 22.67,12.77 38,25.34l156.09 147.92c10.18,9.08 -0.83,3.91 12.96,6.72 -5.36,17.19 8.99,13.06 10.97,13.43 -3.09,13.07 -5.96,12.79 4.69,6.09 -3.5,12.47 -6.88,12.62 3.78,6.85 2.67,11.38 -0.83,6.13 6.05,14.36 6.74,8.06 4.78,4.59 11.88,8.02 -2.11,11.49 -5.64,12.31 3.35,6.82 4.83,19.64 -6.61,-4.84 2.49,8.42 4.96,7.22 3.74,4.89 7.55,7.7l25.97 42.51 5.23 8.84 5.16 9.17 -5.16 -9.17 -5.23 -8.84c-3.7,-11.57 -3.42,-11.8 -9.89,-23.21 -3.1,-5.48 -2.17,-4.4 -6.14,-9.49 -7.58,-9.74 -4.58,-5.81 -9.94,-9.81 -6.42,-30.28 -3.55,-11.79 -10.05,-16.12 2.32,-11.29 5.7,-11.74 -3.35,-6.82 -4.93,-16.13 1.15,-4.53 -6.58,-13.86 -13.34,-16.12 -1.27,-2.99 -11.36,-8.52 2.81,-13.1 6.74,-14.39 -3.78,-6.85 3.76,-12.63 6.15,-11.57 -4.69,-6.09 -1.42,-24.71 -8.45,-12.86 -10.97,-13.43 -7.67,-25.14 -77.79,-100.82 -97.29,-116.1 -70.38,-55.13 -128.63,-101.02 -209.94,-136.07 -72.46,-31.23 -117.71,-44.89 -199.66,-59.53 -56.2,-10.04 -194.3,-18.74 -243.91,1.65l80.93 -3.5zm-184.52 27.14l45.67 -9.53 58.31 -10c-21.08,-9.19 -104.05,19.46 -103.98,19.53z"/>
  <path class="fil6" d="M878.49 1554.66c-181.22,-6.61 -316.7,-33.97 -462.81,-133.57 -14.88,-10.14 -22.67,-12.77 -38,-25.34l-156.09 -147.92c-10.18,-9.08 0.83,-3.91 -12.96,-6.72 5.36,-17.19 -8.99,-13.06 -10.97,-13.43 3.09,-13.07 5.96,-12.79 -4.69,-6.09 3.5,-12.47 6.88,-12.62 -3.78,-6.85 -2.67,-11.38 0.83,-6.13 -6.05,-14.36 -6.74,-8.06 -4.78,-4.59 -11.88,-8.02 2.11,-11.49 5.64,-12.31 -3.35,-6.82 -4.83,-19.64 6.61,4.84 -2.49,-8.42 -4.96,-7.22 -3.74,-4.89 -7.55,-7.7l-25.97 -42.51 -5.23 -8.84 -5.16 -9.17 5.16 9.17 5.23 8.84c3.7,11.57 3.42,11.8 9.89,23.21 3.1,5.48 2.17,4.4 6.14,9.49 7.58,9.74 4.58,5.81 9.94,9.81 6.42,30.28 3.55,11.79 10.05,16.12 -2.32,11.29 -5.7,11.74 3.35,6.82 4.93,16.13 -1.15,4.53 6.58,13.86 13.34,16.12 1.27,2.99 11.36,8.52 -2.81,13.1 -6.74,14.39 3.78,6.85 -3.76,12.63 -6.15,11.57 4.69,6.09 1.42,24.71 8.45,12.86 10.97,13.43 7.67,25.14 77.79,100.82 97.29,116.1 70.38,55.13 128.63,101.02 209.94,136.07 72.46,31.23 117.71,44.89 199.66,59.53 56.2,10.04 194.3,18.74 243.91,-1.65l-80.93 3.5zm184.52 -27.14l-45.67 9.53 -58.31 10c21.08,9.19 104.05,-19.46 103.98,-19.53z"/>
  <path class="fil0 str2" d="M554.55 309.89c38.64,-18.48 87.25,-37.13 101.14,-36.9l6.58 1.04c37.38,-29.51 188.58,-24.18 227.54,-17.71 35.98,5.98 71.4,12.5 102.42,23.65l93.61 36.32c25.49,4.07 20.42,7.41 51.48,25.93 29.89,17.82 110.32,82.34 136.82,108.04 149.87,145.33 233.4,246.97 43.04,31.04 -25.52,-28.16 -40.88,-41.51 -68.3,-64.41 -17.56,-14.67 -44.62,-40.63 -63.67,-48.26 -1.07,-0.43 -4.3,-1.67 -5.34,-2.22 -9.63,-5.05 2.09,4.29 -8.11,-5.62 -4.7,-8.18 -4.8,-6.17 -12.25,-9.5 -12.17,-3.41 -8.57,-1.37 -18.52,-13.17l-12.87 -6.4c-12.2,1.48 -8.86,2.06 -27.11,-9.85l-26.34 -13.94c-0.74,-1.44 -1.69,-1.3 -2.43,-2.12 -39.62,-36.38 -189.73,-62.07 -257.64,-63.08 -47.07,-0.7 -74.32,6.86 -98.41,7.07 -1.05,0.23 -9.39,2.04 -9.73,2.05 -11.6,0.24 -3.11,0.41 -8.73,-1.16 -33.24,11.53 -68.35,21.07 -106.15,34.12 -100.19,46.79 -179,102.44 -249.77,204.09 -77.2,110.88 -194.78,424.33 -79.27,145.08 38.95,-85.27 99.39,-169.51 165.32,-232.02 30.6,-29.02 86.86,-74.5 126.71,-92.06z"/>
  <ellipse class="fil5 str3" cx="832.44" cy="794.94" rx="595.07" ry="591.43"/>
  <ellipse class="fil5 str3" cx="830.67" cy="822.76" rx="693.73" ry="689.48"/>
  <path class="fil3 str4" d="M198.15 1301.9c-108.87,0 -197.12,-88.25 -197.12,-197.12 0,-108.87 88.25,-197.12 197.12,-197.12 15.46,0 30.51,1.79 44.94,5.15 30.85,89.42 81.77,169.57 147.43,235.13 -19.68,88.1 -98.33,153.96 -192.37,153.96z"/>
  <path class="fil4" d="M740.22 10.29c-45.94,8.21 -98.29,20.13 -145.9,33.66 -70.13,15.72 -187.86,81.67 -239.78,119.91 -68.26,50.28 -122.8,103.98 -167.02,160.77 -25.86,33.21 -42.58,59.62 -63.35,92.58 -21.51,34.14 -10.81,31.15 -34.78,39.29 -51.04,17.33 -19.9,63.54 -21.63,75.2 -80.07,229.85 -81.1,240.03 5.41,1.01 10.35,1.74 0.52,-0.4 10.78,2.85 5.85,1.85 1.69,1.26 8.95,3.16 8.12,2.13 12.2,1.95 20.73,-0.46 15.91,-4.5 25.2,-14.85 29.03,-25.64 14.29,-40.3 -23.72,-52 -32.44,-61.97 12.37,-17.41 22.56,-38.48 36.45,-60.11 37.48,-58.38 86.5,-115.87 138.77,-163.14 102.97,-93.12 155.84,-111.5 276.15,-166.62 25.67,-8.02 100.65,-32.8 122.3,-31.68 11.51,-3.24 122.73,-38.23 56.32,-18.81z"/>
  <path class="fil4" d="M613.37 292.7c-33.59,14.05 -53.18,24.66 -83.37,41.01 -3.25,-1.3 -0.95,-1.05 -5.35,-1.29 -3.81,-0.2 -1.85,-0.26 -5.84,0.29 -3.87,0.53 -10.41,2.4 -14.33,3.43 -9.15,2.4 -20.44,5.57 -27.86,7.72 -55.16,16 -116.65,48.8 -161.85,81.74 -160.2,116.72 -250.89,317.61 -223.44,513.67 2.52,0.65 27.88,-11.32 -8.88,11.66 -9.84,6.16 -9.27,7.42 -17.43,14.77 1.82,3.15 1.87,1.81 -2.03,3.22 -1.42,-3.51 -1.85,-2.3 2.03,-3.22 -17.24,-71.47 -5.04,-166.94 9.29,-234.51 7.42,-34.98 23.15,-74.99 37.32,-104.29 22.1,-45.69 25.86,-53.28 56.44,-96.12 99.53,-139.46 255.72,-224.82 428.57,-239.62 1.2,-0.1 6.24,-0.55 7.32,-0.5 0.76,0.04 2.99,0.24 3.72,0.36 4.48,0.76 2.07,0.06 5.7,1.69z"/>
  <circle class="fil0 str4" cx="1794.11" cy="624.93" r="82.92"/>
  <path class="fil0 str5" d="M1105.53 1312.63c-36.58,17.49 -82.6,35.16 -95.75,34.93l-6.23 -0.98c-35.38,27.93 -178.53,22.89 -215.41,16.77 -34.06,-5.66 -67.59,-11.84 -96.96,-22.39l-88.62 -34.38c-24.14,-3.85 -19.34,-7.02 -48.74,-24.55 -28.3,-16.87 -104.44,-77.96 -129.53,-102.28 -141.89,-137.59 -220.96,-233.81 -40.74,-29.38 24.17,26.66 38.71,39.3 64.66,60.98 16.63,13.89 42.24,38.46 60.28,45.69 1.01,0.41 4.07,1.58 5.06,2.1 9.12,4.78 -1.98,-4.06 7.68,5.32 4.45,7.74 4.54,5.85 11.6,9 11.52,3.23 8.11,1.29 17.53,12.47l12.19 6.06c11.54,-1.4 8.39,-1.95 25.66,9.32l24.93 13.19c0.7,1.36 1.6,1.23 2.3,2 37.51,34.45 179.62,58.77 243.91,59.72 44.56,0.66 70.35,-6.5 93.17,-6.7 1,-0.22 8.89,-1.93 9.21,-1.94 10.98,-0.23 2.95,-0.39 8.27,1.1 31.47,-10.92 64.7,-19.94 100.5,-32.31 94.85,-44.3 169.46,-96.98 236.46,-193.21 73.08,-104.97 184.4,-401.72 75.04,-137.35 -36.88,80.73 -94.1,160.48 -156.51,219.66 -28.97,27.47 -82.23,70.54 -119.96,87.16z"/>
  <circle class="fil5 str6" cx="1794.11" cy="624.93" r="107.12"/>
 </g>
</svg>
