<?xml version="1.0" encoding="UTF-8"?>
<!DOCTYPE svg PUBLIC "-//W3C//DTD SVG 1.1//EN" "http://www.w3.org/Graphics/SVG/1.1/DTD/svg11.dtd">
<!-- Creator: CorelDRAW -->
<svg xmlns="http://www.w3.org/2000/svg" xml:space="preserve" width="159.054mm" height="128.477mm" version="1.1" style="shape-rendering:geometricPrecision; text-rendering:geometricPrecision; image-rendering:optimizeQuality; fill-rule:evenodd; clip-rule:evenodd"
viewBox="0 0 1383.84 1117.81"
 xmlns:xlink="http://www.w3.org/1999/xlink"
 xmlns:xodm="http://www.corel.com/coreldraw/odm/2003">
 <defs>
  <style type="text/css">
   <![CDATA[
    .str1 {stroke:#8D33E8;stroke-width:5.89;stroke-miterlimit:22.9256}
    .str0 {stroke:#373435;stroke-width:3.68;stroke-miterlimit:22.9256}
    .str3 {stroke:#2E71F0;stroke-width:3.68;stroke-miterlimit:22.9256}
    .str4 {stroke:#000F30;stroke-width:1.47;stroke-miterlimit:22.9256}
    .str2 {stroke:#0051FF;stroke-width:1.47;stroke-miterlimit:22.9256}
    .str6 {stroke:#833BEB;stroke-width:1.47;stroke-miterlimit:22.9256}
    .str5 {stroke:#F9A715;stroke-width:1.47;stroke-miterlimit:22.9256}
    .fil5 {fill:none}
    .fil6 {fill:#4675BD}
    .fil7 {fill:#6E44FB}
    .fil4 {fill:#833BEB}
    .fil0 {fill:#8B69EE}
    .fil3 {fill:#8D33E8}
    .fil2 {fill:#F9A715}
    .fil1 {fill:#FDFDFF}
   ]]>
  </style>
 </defs>
 <g id="Camada_x0020_1">
  <metadata id="CorelCorpID_0Corel-Layer"/>
  <g id="_3230204871232">
   <path class="fil0" d="M649.75 397.18c-0,-35.92 36.07,-57.61 36.06,-27.63l0.01 82.88c0,16.7 -10.23,18.43 -14.41,8.94 -2.03,-4.61 -0.95,-22.65 -0.95,-28.8 -8.99,-1.41 -12.31,-1.88 -18.1,-4.79 -3.6,-12.43 -2.61,-17.54 -2.62,-30.61zm-38.37 -41.19c12.45,4.92 2.26,19.64 9.21,32.94 4.98,-8.9 -2.73,-23.7 4.6,-32.94 7.52,2.86 5.86,4.33 7.97,14.39 4.35,20.66 9.03,28.53 -7.19,39.07 -0.42,0.28 -1.09,0.67 -1.48,0.91l-4.5 2.93c0,11.64 5.58,54.12 -8.29,52.55 -11.86,-1.34 -6.65,-40.69 -6.65,-52.55 -0.48,-0.37 -1.18,-0.78 -1.51,-1 -0.33,-0.21 -1.09,-0.72 -1.5,-0.98 -11.53,-7.41 -15.69,-9.61 -13.57,-25.33 1.87,-13.85 3.62,-27.05 11.38,-30 7.34,9.24 -0.38,24.05 4.61,32.94 5.53,-10.59 -0.54,-24.39 6.91,-32.93zm8.24 -91.59c-85.7,11.99 -139.52,85.39 -129.64,164.42 9.28,74.22 76.66,139.61 164.3,128.66 75.3,-9.41 139.54,-76.63 129.08,-164.46 -8.81,-73.97 -77.88,-140.63 -163.74,-128.62z"/>
   <path class="fil1" d="M649.75 397.18c0,13.07 -0.98,18.18 2.62,30.61 5.79,2.91 9.11,3.38 18.1,4.79 -0,6.15 -1.08,24.19 0.95,28.8 4.18,9.48 14.41,7.76 14.41,-8.94l-0.01 -82.88c0,-29.99 -36.07,-8.3 -36.06,27.63z"/>
   <path class="fil1" d="M605.05 413.29c-0.01,11.86 -5.21,51.21 6.65,52.55 13.87,1.57 8.3,-40.91 8.29,-52.55l4.5 -2.93c0.39,-0.25 1.06,-0.64 1.48,-0.91 16.21,-10.54 11.53,-18.41 7.19,-39.07 -2.12,-10.06 -0.45,-11.53 -7.97,-14.39 -7.34,9.24 0.38,24.04 -4.6,32.94 -6.95,-13.29 3.24,-28.02 -9.21,-32.94 -7.45,8.55 -1.37,22.34 -6.91,32.93 -4.98,-8.89 2.73,-23.7 -4.61,-32.94 -7.76,2.95 -9.51,16.15 -11.38,30 -2.12,15.71 2.04,17.92 13.57,25.33 0.41,0.26 1.17,0.77 1.5,0.98 0.33,0.22 1.03,0.63 1.51,1z"/>
  </g>
  <g id="_3230204875984">
   <path class="fil2" d="M747.01 683.75c-9.23,-15.15 -5.65,-47.31 14.73,-37.29 7.69,3.78 9.26,16.07 6.32,27.05 -3.17,11.81 -8.54,12.07 -21.05,10.24zm-0.77 -48.12l-4.67 -3.3c-7.11,-3.28 -13.13,-2.8 -22.45,-0.8l-0.02 99.1 23.13 0.84 -0 -35.1c30.33,11.21 49.24,-0.4 50.14,-31.36 0.88,-30.47 -27.68,-50.98 -46.13,-29.38z"/>
   <path class="fil2" d="M579.31 674.18c-7.34,-31.49 21.75,-37.33 26.29,-18.35 7.04,29.47 -21.62,38.37 -26.29,18.35zm26.46 -40.4c-27.47,-12.03 -49.69,-0.82 -50.42,31.22 -0.69,30.32 29.13,50.81 46.91,29.19 0.49,0.42 1.16,0.48 1.44,1.3 0.41,1.19 2.24,1.79 3.11,2.18 6.52,2.96 12.16,1.85 21.79,1.66l0.01 -100.93 -22.82 -0.02 -0.01 35.4z"/>
   <path class="fil2" d="M417.77 696.27l0.03 -18.85c-11.62,0.8 -20.43,8.34 -35.42,3.21 -22.75,-7.79 -23.31,-49.03 0.38,-58.6 15.62,-6.31 23.38,1.58 34.99,2.83l-0.11 -20.73c-40.74,-14.64 -75.76,9.46 -76.62,47.41 -0.96,42.51 38.09,62.81 76.74,44.74z"/>
   <polygon class="fil2" points="441.58,837.49 466.52,837.41 499.24,741.49 476.46,741 454.35,815.7 432.25,741.26 409.02,740.88 "/>
   <path class="fil2" d="M864.56 674.18c-7.93,-31.05 22.09,-38.17 27.86,-17.88 8.41,29.58 -22.8,37.69 -27.86,17.88zm1.23 -44.26c-43.79,12.76 -28.93,86.16 25.84,70.43 40.87,-11.74 30.94,-86.97 -25.84,-70.43z"/>
   <path class="fil2" d="M676.31 685.02c-14.23,2.12 -15.54,-0.27 -13.53,-13.17 5.47,-2.28 12.47,-4.04 19.94,-3.8 -0.4,11.35 -1.55,10.95 -6.4,16.97zm-28.95 -51.56l-0.11 14.69c13.57,-1.94 28.63,-13.03 35.11,3 -10.56,10.58 -42.39,-0.52 -42.03,29.82 0.3,25 29.32,26.57 41.39,12.13 2.91,7.89 2.93,6.46 22.12,6.2 0.02,-16.96 2.58,-50.43 -4.98,-61.22 -9.9,-14.13 -34.23,-11.74 -51.51,-4.63z"/>
   <path class="fil2" d="M467.94 667.25c-0.88,24.77 -23.97,25.92 -20.16,3.59l20.16 -3.59zm-35.57 -34.2l-0.13 15.35c13.79,-3.46 31.04,-13.36 35.65,5.91 -20.84,2.52 -41.19,2.61 -42.32,24.57 -1.18,23.13 26.41,30.8 38.64,15.29l4.56 3.44c6.92,3.29 12.09,2.36 20.44,1 0.04,-48.8 5.29,-86.53 -56.83,-65.57z"/>
   <path class="fil2" d="M701.83 830.4c0.43,0.43 0.88,0.66 1.08,1.47 0.86,3.56 3.56,4.74 8.42,5.69 3.48,0.68 11.71,-0.14 15.43,-0.49l-0.01 -67.93 -21.32 -0.58c0,25.19 8.02,59.81 -20.85,53.64 -5.57,-13.16 -3.47,-35.99 -3.45,-53.37l-21.05 -0.28c-0.01,13.24 -1.52,48.17 2.33,57.96 6.49,16.49 29.59,18.23 39.42,3.9z"/>
   <path class="fil2" d="M775.62 823.45c-25.53,4.07 -22.63,-19.44 6.19,-17.53 -0.29,9.66 -1.87,12.4 -6.19,17.53zm-29.25 -51.78l-0.08 14.34c13.43,-4.16 32.31,-12.32 35.17,5.59 -13.79,7.65 -42.88,-1.79 -42.16,27.56 0.63,25.53 29.21,25.81 41.87,10.43l0.76 8.04 19.64 0.02c0.05,-47.04 5.96,-88.97 -55.2,-65.97z"/>
   <path class="fil2" d="M613.03 753.49l-1.56 14.58c-0.6,0.09 -5.62,0.54 -6.09,0.68 -7.41,2.07 -1.57,0.15 -4.74,2.13 -0.01,20.73 2.07,9.61 11.09,16.12 -0.01,30.02 -3.29,65.43 36.76,50.18l-0.22 -14.68 -13.33 -0.01 -2.04 -37.52 15.38 -0.94 0.26 -14.9 -15.32 -0.95 -0.18 -19.92 -20 5.22z"/>
   <polygon class="fil2" points="818.63,837.62 830.82,837.62 839.98,837.42 839.97,736.62 830.82,736.3 818.65,736.34 "/>
   <path class="fil2" d="M527.77 638.36c0.44,-8.52 2.6,-9.39 -23.01,-7.3l0.01 67.56 22.9 0.8c0.06,-45.14 -5.06,-53.02 23.6,-51.56l0 -18.71c-13.23,-2.48 -18.57,0.76 -23.49,9.22z"/>
   <path class="fil2" d="M574.51 775.03c-3.8,-2.92 -4.5,-5.03 -11.13,-6.41 -3.36,-0.7 -11.67,0.15 -15.28,0.5l-0.02 67.96 21.36 0.68c0.04,-24.78 -7.07,-59.23 23.29,-51.83l0.43 -18.84c-12.88,-1.76 -13.93,-0.44 -18.65,7.93z"/>
   <polygon class="fil2" points="805.11,699.29 814.71,699.58 819.31,699.53 827.96,699.07 827.95,630.99 805.12,630.39 "/>
   <polygon class="fil2" points="508.94,837.08 517.7,837.77 530.31,837.65 530.32,768.54 508.94,768.81 "/>
   <path class="fil2" d="M809.92 599.96c-15.21,8.06 -0.52,28.9 14.6,19.6 11.88,-7.31 2.36,-28.59 -14.6,-19.6z"/>
   <path class="fil2" d="M661.55 617.84l8.08 1.32c10.34,1.11 23.77,-15.19 27.76,-20.58 -33.93,-2.14 -19.96,7.01 -35.85,19.26z"/>
   <path class="fil2" d="M510.91 754.27c0,0 0,0 0,0z"/>
  </g>
  <path class="fil3" d="M442.55 33.94c35.38,0.44 56.88,2.87 90.04,6.62 2.45,-2.35 0.47,-1.29 4.36,-3.11 3.36,-1.57 1.58,-0.91 5.37,-1.87 3.68,-0.93 10.25,-1.62 14.15,-2.12 9.12,-1.16 20.44,-2.42 27.91,-3.18 55.52,-5.65 122.85,1.53 175.57,14.77 186.8,46.89 341.6,194.89 388.19,381.52 -2.04,1.5 -29.24,-0.06 12.24,7.27 11.11,1.96 11.05,3.32 21.08,6.97 -0.5,3.5 -1.02,2.31 3,2.16 0,-3.68 0.83,-2.74 -3,-2.16 -10.46,-70.67 -56.19,-152.25 -93.69,-207.91 -19.41,-28.82 -48.13,-59.14 -71.57,-80.39 -36.53,-33.13 -42.68,-38.59 -85.82,-66.07 -140.41,-89.44 -312.19,-109.53 -473.31,-59.98 -1.12,0.34 -5.82,1.77 -6.78,2.21 -0.67,0.31 -2.6,1.3 -3.22,1.68 -3.76,2.32 -1.84,0.81 -4.52,3.59z"/>
  <path class="fil4 str0" d="M1171.24 416.97c70.03,-12.5 136.88,33.8 149.3,103.4 12.42,69.61 -34.29,136.16 -104.32,148.66 -37.8,6.74 -74.66,-3.64 -102.54,-25.57 8.72,-34.32 10.44,-70.97 3.82,-108.05 -4.61,-25.81 -12.94,-50.02 -24.33,-72.19 18.85,-23.48 46.01,-40.53 78.07,-46.25z"/>
  <ellipse class="fil5 str1" cx="651.52" cy="592.64" rx="443.98" ry="441.26"/>
  <path class="fil2" d="M576.54 88.82c129.56,4.73 226.41,24.28 330.87,95.49 10.64,7.25 16.21,9.13 27.17,18.12l111.59 105.75c7.28,6.49 -0.6,2.8 9.27,4.8 -3.83,12.29 6.43,9.33 7.84,9.6 -2.21,9.35 -4.26,9.14 3.35,4.35 -2.5,8.92 -4.92,9.02 2.7,4.9 1.91,8.14 -0.59,4.38 4.33,10.27 4.82,5.76 3.42,3.28 8.5,5.73 -1.51,8.21 -4.03,8.8 2.39,4.88 3.45,14.04 -4.73,-3.46 1.78,6.02 3.55,5.16 2.68,3.5 5.4,5.51l18.57 30.39 3.74 6.32 3.69 6.56 -3.69 -6.56 -3.74 -6.32c-2.64,-8.27 -2.45,-8.43 -7.07,-16.6 -2.22,-3.92 -1.55,-3.14 -4.39,-6.78 -5.42,-6.96 -3.27,-4.16 -7.11,-7.01 -4.59,-21.65 -2.54,-8.43 -7.18,-11.53 1.66,-8.07 4.07,-8.4 -2.39,-4.88 -3.52,-11.53 0.82,-3.24 -4.7,-9.91 -9.54,-11.53 -0.91,-2.14 -8.12,-6.09 2.01,-9.37 4.82,-10.29 -2.7,-4.9 2.69,-9.03 4.39,-8.27 -3.35,-4.35 -1.02,-17.67 -6.04,-9.19 -7.84,-9.6 -5.48,-17.97 -55.61,-72.08 -69.56,-83 -50.31,-39.41 -91.96,-72.22 -150.09,-97.28 -51.8,-22.33 -84.15,-32.09 -142.74,-42.56 -40.18,-7.18 -138.91,-13.4 -174.38,1.18l57.86 -2.5zm-131.92 19.4l32.65 -6.82 41.69 -7.15c-15.07,-6.57 -74.38,13.92 -74.33,13.97z"/>
  <path class="fil6" d="M651.93 1111.46c-129.56,-4.73 -226.41,-24.28 -330.87,-95.49 -10.64,-7.25 -16.21,-9.13 -27.17,-18.12l-111.59 -105.75c-7.28,-6.49 0.6,-2.8 -9.27,-4.8 3.83,-12.29 -6.43,-9.33 -7.84,-9.6 2.21,-9.35 4.26,-9.14 -3.35,-4.35 2.5,-8.92 4.92,-9.02 -2.7,-4.9 -1.91,-8.14 0.59,-4.38 -4.33,-10.27 -4.82,-5.76 -3.42,-3.28 -8.5,-5.73 1.51,-8.21 4.03,-8.8 -2.39,-4.88 -3.45,-14.04 4.73,3.46 -1.78,-6.02 -3.55,-5.16 -2.68,-3.5 -5.4,-5.51l-18.57 -30.39 -3.74 -6.32 -3.69 -6.56 3.69 6.56 3.74 6.32c2.64,8.27 2.45,8.43 7.07,16.6 2.22,3.92 1.55,3.14 4.39,6.78 5.42,6.96 3.27,4.16 7.11,7.01 4.59,21.65 2.54,8.43 7.18,11.53 -1.66,8.07 -4.07,8.4 2.39,4.88 3.52,11.53 -0.82,3.24 4.7,9.91 9.54,11.53 0.91,2.14 8.12,6.09 -2.01,9.37 -4.82,10.29 2.7,4.9 -2.69,9.03 -4.39,8.27 3.35,4.35 1.02,17.67 6.04,9.19 7.84,9.6 5.48,17.97 55.61,72.08 69.56,83 50.31,39.41 91.96,72.22 150.09,97.28 51.8,22.33 84.15,32.09 142.74,42.56 40.18,7.18 138.91,13.4 174.38,-1.18l-57.86 2.5zm131.92 -19.4l-32.65 6.82 -41.69 7.15c15.07,6.57 74.38,-13.92 74.33,-13.97z"/>
  <path class="fil2 str2" d="M420.34 221.54c27.62,-13.21 62.38,-26.55 72.31,-26.38l4.7 0.74c26.72,-21.09 134.82,-17.29 162.67,-12.66 25.72,4.27 51.04,8.94 73.22,16.91l66.92 25.96c18.23,2.91 14.6,5.3 36.81,18.54 21.37,12.74 78.87,58.87 97.81,77.24 107.15,103.9 166.86,176.57 30.77,22.19 -18.25,-20.13 -29.23,-29.68 -48.83,-46.05 -12.56,-10.49 -31.9,-29.05 -45.52,-34.5 -0.76,-0.31 -3.08,-1.19 -3.82,-1.58 -6.88,-3.61 1.49,3.07 -5.8,-4.02 -3.36,-5.85 -3.43,-4.41 -8.76,-6.8 -8.7,-2.44 -6.12,-0.98 -13.24,-9.42l-9.2 -4.58c-8.72,1.06 -6.34,1.47 -19.38,-7.04l-18.83 -9.96c-0.53,-1.03 -1.21,-0.93 -1.74,-1.51 -28.33,-26.01 -135.64,-44.38 -184.19,-45.1 -33.65,-0.5 -53.13,4.91 -70.36,5.06 -0.75,0.17 -6.71,1.46 -6.96,1.46 -8.29,0.17 -2.22,0.29 -6.24,-0.83 -23.76,8.25 -48.86,15.06 -75.89,24.4 -71.63,33.45 -127.97,73.24 -178.56,145.9 -55.19,79.27 -139.25,303.36 -56.67,103.72 27.85,-60.96 71.06,-121.18 118.19,-165.88 21.88,-20.75 62.1,-53.26 90.59,-65.82z"/>
  <ellipse class="fil5 str3" cx="619.01" cy="568.32" rx="425.43" ry="422.82"/>
  <ellipse class="fil5 str3" cx="617.74" cy="588.21" rx="495.96" ry="492.92"/>
  <path class="fil7 str4" d="M141.66 944.58c-77.83,0 -140.93,-63.09 -140.93,-140.93 0,-77.83 63.09,-140.93 140.93,-140.93 11.05,0 21.81,1.28 32.13,3.68 22.05,63.93 58.46,121.23 105.4,168.1 -14.07,62.99 -70.3,110.07 -137.53,110.07z"/>
  <path class="fil4" d="M553.08 7.36c-32.84,5.87 -70.27,14.39 -104.3,24.07 -50.14,11.24 -134.31,58.39 -171.42,85.72 -48.8,35.95 -87.8,74.33 -119.41,114.93 -18.49,23.74 -30.44,42.62 -45.29,66.19 -15.38,24.41 -7.73,22.27 -24.87,28.09 -36.49,12.39 -14.23,45.43 -15.47,53.76 -57.24,164.33 -57.98,171.6 3.87,0.72 7.4,1.25 0.37,-0.29 7.71,2.04 4.18,1.32 1.21,0.9 6.4,2.26 5.81,1.52 8.72,1.4 14.82,-0.33 11.38,-3.21 18.02,-10.62 20.75,-18.33 10.22,-28.81 -16.96,-37.18 -23.19,-44.3 8.84,-12.45 16.13,-27.51 26.06,-42.98 26.8,-41.73 61.84,-82.84 99.21,-116.63 73.62,-66.57 111.41,-79.72 197.42,-119.12 18.35,-5.74 71.95,-23.45 87.44,-22.65 8.23,-2.31 87.74,-27.33 40.26,-13.45z"/>
  <path class="fil4" d="M462.39 209.26c-24.02,10.04 -38.02,17.63 -59.6,29.32 -2.32,-0.93 -0.68,-0.75 -3.83,-0.92 -2.72,-0.15 -1.33,-0.18 -4.18,0.21 -2.77,0.38 -7.44,1.72 -10.24,2.45 -6.54,1.72 -14.61,3.98 -19.92,5.52 -39.44,11.44 -83.39,34.89 -115.71,58.44 -114.53,83.45 -179.37,227.07 -159.74,367.23 1.8,0.46 19.93,-8.09 -6.35,8.33 -7.04,4.4 -6.63,5.31 -12.46,10.56 1.3,2.25 1.33,1.3 -1.45,2.3 -1.01,-2.51 -1.32,-1.64 1.45,-2.3 -12.33,-51.1 -3.61,-119.35 6.64,-167.66 5.31,-25.01 16.55,-53.61 26.68,-74.56 15.8,-32.66 18.49,-38.09 40.35,-68.72 71.16,-99.7 182.82,-160.73 306.39,-171.31 0.86,-0.07 4.46,-0.39 5.23,-0.36 0.54,0.03 2.13,0.17 2.66,0.26 3.2,0.54 1.48,0.05 4.07,1.21z"/>
  <circle class="fil2 str4" cx="1306.52" cy="446.77" r="59.28"/>
  <path class="fil2 str5" d="M814.25 938.43c-26.15,12.51 -59.05,25.13 -68.46,24.98l-4.45 -0.7c-25.3,19.97 -127.64,16.37 -154,11.99 -24.35,-4.05 -48.32,-8.46 -69.32,-16.01l-16.08 -6.24 -47.28 -18.34c-17.25,-2.75 -13.82,-5.02 -34.85,-17.55 -20.23,-12.06 -74.67,-55.73 -92.6,-73.12 -101.44,-98.37 -157.97,-167.16 -29.13,-21.01 17.28,19.06 27.67,28.1 46.23,43.6 11.89,9.93 30.2,27.5 43.09,32.67 0.72,0.29 2.91,1.13 3.62,1.5 6.52,3.42 -1.41,-2.91 5.49,3.81 3.18,5.54 3.25,4.18 8.29,6.43 8.24,2.31 5.8,0.93 12.53,8.91l8.71 4.33c8.25,-1 6,-1.4 18.35,6.66l17.83 9.43c0.5,0.98 1.15,0.88 1.65,1.43 26.82,24.63 128.41,42.01 174.38,42.69 31.86,0.47 50.3,-4.65 66.61,-4.79 0.71,-0.16 6.36,-1.38 6.59,-1.39 7.85,-0.17 2.11,-0.28 5.91,0.79 22.5,-7.81 46.26,-14.26 71.85,-23.1 67.81,-31.67 121.15,-69.33 169.05,-138.13 52.25,-75.05 131.83,-287.2 53.65,-98.19 -26.36,57.71 -67.27,114.73 -111.89,157.04 -20.71,19.64 -58.79,50.43 -85.76,62.31z"/>
  <circle class="fil5 str6" cx="1306.52" cy="446.77" r="76.58"/>
  <path class="fil5 str0" d="M1113.67 643.47c8.72,-34.32 10.44,-70.97 3.82,-108.05 -4.61,-25.81 -12.94,-50.02 -24.33,-72.19 18.85,-23.48 46.01,-40.53 78.07,-46.25"/>
 </g>
</svg>
