<?xml version="1.0" encoding="UTF-8"?>
<!DOCTYPE svg PUBLIC "-//W3C//DTD SVG 1.1//EN" "http://www.w3.org/Graphics/SVG/1.1/DTD/svg11.dtd">
<!-- Creator: CorelDRAW -->
<svg xmlns="http://www.w3.org/2000/svg" xml:space="preserve" width="123.126mm" height="137.996mm" version="1.1" style="shape-rendering:geometricPrecision; text-rendering:geometricPrecision; image-rendering:optimizeQuality; fill-rule:evenodd; clip-rule:evenodd"
viewBox="0 0 1236.51 1385.86"
 xmlns:xlink="http://www.w3.org/1999/xlink"
 xmlns:xodm="http://www.corel.com/coreldraw/odm/2003">
 <defs>
  <style type="text/css">
   <![CDATA[
    .fil3 {fill:#143370}
    .fil4 {fill:#24446A}
    .fil1 {fill:#2E71F0}
    .fil2 {fill:#54A6DD}
    .fil0 {fill:#9B9B9B}
    .fil5 {fill:white}
   ]]>
  </style>
 </defs>
 <g id="Camada_x0020_1">
  <metadata id="CorelCorpID_0Corel-Layer"/>
  <polygon class="fil0" points="8.62,1381.58 -0,1385.86 8.62,1381.58 12.84,1372.4 "/>
  <path class="fil1" d="M738.91 519.77l-2.94 4.33c0.35,2.11 0.69,1.44 -1.65,1.4l-0.89 1.77c0.37,2.53 0.95,1.94 -1.54,1.94 -6.92,7.35 -13.69,18.85 -17.81,29.79l-1.23 3.31c0.2,4.54 0.46,2.04 -1.38,2.88l-1.35 4.48c-3.33,25.02 -9.32,58.56 7.82,86.3 12.72,20.6 27.12,42.6 51.19,51.55 1.81,1.07 2.78,1.72 4.32,3.05 23.02,8.14 40.81,14.7 69.31,9.78 1.09,-0.71 1.27,-1.49 4.04,-2.07 2.96,-0.63 1.62,-0.21 3.81,0.04 26.67,-1.57 57.59,-27.83 72.23,-48.59 26.14,-37.08 19.39,-65.28 16.71,-98.02 -2.78,1.39 -1.69,1.29 -1.38,-2.03 -3.66,-16.43 -15.14,-35.33 -24.59,-44.5 -2.53,0 -2.05,0.68 -1.81,-1.71 -2.07,0.21 -1.63,0.69 -1.43,-1.35 -2.24,0.39 -1.65,0.81 -1.49,-1.54 -1.95,-0 -1.57,0.5 -1.3,-1.38 -2.2,0.2 -1.75,0.74 -1.56,-1.39 -2.16,0.35 -1.52,0.68 -1.22,-1.66 -4.9,-2.95 -1.53,-0.28 -2.42,-3.33 -23.35,-16.24 -45.05,-30.5 -85.08,-28.24 -48.18,2.72 -65.63,28.14 -78.35,35.17z"/>
  <path class="fil1" d="M243.66 151.07c-0.29,0.25 -0.74,0.24 -0.87,0.74 -0.17,0.62 -1.41,1.21 -1.69,1.44 -0.47,0.37 -2.43,1.85 -2.52,1.92l-1.49 1.1 -1.52 1.55 -1.24 1.41 -1.42 1.63 -1.03 1.66c0.22,2.13 0.77,1.69 -1.21,1.7l-1.13 1.77c0.39,2.39 0.8,1.66 -1.82,1.66 -6.85,4.32 -16.43,25 -19.26,35.51l-1.32 3.14c-0.08,5.24 -0.29,3.14 -1.49,4.45 -0.24,9.66 -2.52,18.67 -2.16,29.85 0.32,10.08 2.15,17.34 4.07,26.41l1.6 3.06c1.08,6.51 4.19,12.12 6.85,17.35 3.36,6.61 7.27,11.18 10.06,17.28 0.06,0.1 2.5,3.08 3.61,4.43 1.79,2.18 3.34,3.76 5.69,5.98 3.62,3.42 8.38,6.99 10.42,9.15 9.83,4.91 15.75,10.75 27.94,14.79l6.99 3.06c25.3,3.99 44.52,8.48 69.71,-1.91l9.36 -4.16c15.76,-4.31 41.61,-28.52 46.65,-40.15 -0.09,-2.12 -0.66,-1.78 1.29,-1.47 1.42,-3.83 1.71,-5.22 5.04,-7.99 9.14,-26.63 16.48,-43.87 8.66,-75.9 -5.93,-24.3 -20.03,-45.17 -33.29,-56.1 -1.88,-1.37 -2.4,-1.71 -4.03,-3.75 -2.02,0.33 -1.49,0.74 -1.49,-1.35 -10,-6.35 -24.83,-17.7 -40.32,-19.49l-4.02 -1.67c-5.21,0.04 -3.17,0.93 -6.85,-1.52 -21.64,-0.67 -31.05,-2.02 -51.28,4.32 -12.36,3.87 -29.39,12.7 -36.48,20.11z"/>
  <path class="fil2" d="M771.04 184.68c-2.89,3.68 -1.47,2.33 -5.35,3.08l-2.25 1.25c-5.38,4.11 -10.61,7.01 -15.32,11.11 -34.15,29.75 -47.62,73.27 -32.59,117.75 2.1,6.21 6.04,11.73 7.35,17.63 4.86,3.32 1.13,-2.06 3.99,5.87 5.4,4.92 8.18,10.49 12.52,15.38 24.12,27.19 67.54,37.41 103.32,29.14 18.5,-4.28 23.96,-10.23 36.83,-17.01 0,-2.38 -0.59,-1.91 1.73,-1.44l2.19 -0.66 2.94 -4.18c-0.25,-2.2 -0.7,-1.7 1.52,-1.33l1.71 -1.13 1.44 -1.42 1.5 -1.36c0.68,-0.52 2.25,-1.72 3.27,-2.42l0.67 -2.18c-0.62,-2.3 -0.86,-1.5 1.81,-1.5 3.65,-5.35 7.1,-9.14 10.94,-15.72 3.53,-6.05 6.12,-11.79 8.44,-18.66 6.87,-20.37 4.65,-28.72 5.29,-49.71 -2.16,-3.14 -1.35,-2.49 -1.74,-7.28 -12.31,-48.27 -49.33,-81.9 -98.42,-84.43 -25.02,-1.29 -31.96,4.14 -51.78,9.21z"/>
  <path class="fil2" d="M350.41 340.19c1.18,-0.39 4.76,-1.16 5.06,-1.25 3.88,3.55 12.65,23.74 15.19,29.11 3.69,7.81 10.19,24.48 14.73,29.36l-20.96 -46.21c-1.3,-2.54 -2.44,-4.88 -3.84,-7.84 -2.77,-5.87 -1.93,-5.43 -0.83,-7.34l-9.36 4.16zm-13.61 206.55c1.54,1.58 3.04,2.95 4.55,5.69 5.33,12.67 34.87,36.36 54.02,39.42l6.5 2.29c13.99,1.02 23.24,3.12 38.08,0.41 13.52,-2.47 22.23,-7.97 31.57,-9.89 3.09,10.12 8.76,18.71 12.34,29.28 0.64,-1.52 0.69,0.01 0.42,-2.81 -0.6,-6.5 -9.78,-18.46 -11.35,-29.31 18.37,-5.91 41.95,-36.68 46.53,-61.95l1.03 -3.88c9.45,-43.89 -14.38,-83.19 -37.76,-98.76 -1,-0.22 -49.87,-34.33 -93.54,-14.41l-3.38 -5.66c0.64,5.38 0.55,2.27 1.12,7.02 -37.16,11.78 -66.79,56.41 -62.86,100.05 1.81,20.12 6.79,27.06 12.73,42.51zm163.72 109.69l-3.19 2.46 -1.68 0.67 1.68 -0.67 3.19 -2.46 5.52 -2.46c-3.43,-1.22 -3.58,-2.37 -5.95,-8.23l-14.99 -31.83c1.88,12.79 17.73,31.41 15.42,42.52z"/>
  <path class="fil3" d="M506.04 653.97l-5.52 2.46 -3.19 2.46 -1.68 0.67c-8.4,3.14 -14.78,9 -20.41,13.94 0,2.41 0.71,2.09 -1.4,1.74l-1.53 1.32 -1.2 1.65 -1.38 1.47 -1.19 1.66 -3.51 3.6c0.15,2.23 0.7,1.72 -1.45,1.72 -2.55,5.32 -6.45,10.48 -9.55,17.24 -2.45,5.34 -5.31,12.75 -5.95,19.15l-1.51 6.12 0.32 23.83c0.17,11.47 5.04,24.68 9.61,33.39 28.57,54.37 98.74,64.58 140.04,33.03 14.76,-11.27 25.59,-24.61 34.26,-48.1l2.73 -9.11c2.55,-31.95 -1.16,-57.77 -17.57,-76.85 -12.26,-14.25 -30.09,-32.46 -59,-36.09l-7.42 -1.51c-20.84,1 -24.57,0.84 -43.51,6.19z"/>
  <path class="fil3" d="M1079.87 472.32c-1.74,1.25 -10.35,2.93 -13.26,3.61l-2.32 0.5 -8.7 3.94c0,2.05 0.44,1.48 -1.76,1.13l-2.6 1.79 -1.92 0.88 -2.4 1.88 -1.73 1.23c-1.85,1.38 -3.15,2.07 -5.23,3.37l-1.11 1.53c0.26,2.22 0.84,1.81 -1.23,1.69 0.19,2.19 0.66,1.68 -1.56,1.38l-1.28 1.39 -1.15 1.86 -1.1 1.66c0.17,2.54 0.85,2.03 -1.47,2.03 -11.78,11.11 -12.7,31.6 -13.1,50.21l-79.8 17.29c-0.31,3.32 -1.4,3.42 1.38,2.03l78.45 -16.89c4.47,8.54 5.09,17.31 11.19,26.47 5,7.5 9.99,14.27 17.7,17.73 -2,8.84 -67.14,95.62 -74.01,105 -12.71,17.34 -25.2,35.21 -37.61,52.1 -6.6,8.98 -11.95,16.97 -18.43,25.74 -4.93,6.68 -15.36,19.53 -18.07,26.1 -6.1,-1.47 -8.52,-4.09 -14.64,-5.96 -5.33,-1.63 -12.58,-1.3 -16.66,-2.5l-16.85 -81.19c-2.19,-0.25 -0.85,-0.67 -3.81,-0.04 -2.77,0.59 -2.95,1.36 -4.04,2.07l6.31 -0.62 17.19 81.16c-14.85,2.18 -26.46,11.14 -30.8,22.43l-2.56 6.11c-3.28,12.58 -1.24,15.33 0.37,27.52 -11.69,1.51 -112.19,47.12 -128.29,48.64 0.53,-2.35 1.11,-1.88 -1.13,-1.88 -0.73,2.7 -1.47,2.38 1.13,1.88 2.96,3.53 1.34,0.43 3.05,5.05l2.22 3.06 -2.22 -3.06c2.74,-5.25 0.79,-3.05 7.18,-5.68 21.12,-8.69 113.74,-45.88 118.99,-46.27 8.78,10.76 5.82,13.21 20.06,20.1 12.95,6.26 19.4,3.99 33.21,1.9l4.89 -3.34c10.03,-3.41 21.46,-18.03 20.87,-33.36l-0.5 -10.33c-2.03,-14.69 -9.39,-15.05 -13.6,-25.43l37.82 -51.62c16.88,-24.19 100.93,-137.86 110.65,-154.42 4.71,0.73 41.83,23.92 74.53,2.62 4.18,-3.59 10.51,-7.51 15.01,-10.32 13.8,-14.97 27.44,-37.45 20.06,-68.38 -5.61,-23.49 -22.92,-41.84 -42.38,-48.72 5.18,-21.94 15.62,-48.06 22.54,-70.46l16.16 -50.49c2.59,-8.86 6.44,-20.87 9.85,-30.08l19.32 -60.48c2.7,-8.13 6.74,-23.11 9.79,-29.54 2.53,0.51 4.46,0.77 7.81,1.19l-12.42 -4.06c1.95,2.33 1.22,-0.14 1.54,4.34l-17.63 56.53c-6.51,20.91 -12.82,39.63 -19.58,60.19 -2.78,8.48 -37.8,115.59 -38.2,121.45 -13.42,-1.66 -18.19,-3.95 -34.13,-3.64z"/>
  <path class="fil3" d="M612.82 34.93l2.35 -5.36c3.28,-7.4 11.48,-16.66 16.51,-19.64l1.41 -0.4 0.9 -1.03 1.15 -0.59 1.02 -0.82 1.24 -0.41 1.17 -0.58 1.19 -0.5c1.25,0.49 0.88,0.72 1.17,-0.54 1.59,-0.81 1.54,-0.84 2.91,-1.49 1.25,0.58 0.91,0.81 1.11,-0.51l3.82 -1.22 1.26 -0.42 2.69 -0.59 1.16 -0.38c8.47,-0.62 12.67,-0.88 22.04,1.08l1.53 0.83c7.73,1.46 15.01,5.94 19.98,10.56 -0.39,1.48 -0.53,0.91 1.28,1.02 0.89,1.09 2,2.11 2.75,2.88l0.87 0.92c6.35,6.72 12.26,18.24 12.94,29.99l0.07 2.07 0.51 4.73 -3.43 16.27 -2.01 4.64 -1.4 2.5 -0.56 1.81 -2.42 3.77c-14.95,19.76 -42.22,31.46 -72.79,13.35 -1.33,0.72 -0.26,-0.16 -1.7,1.15l-45.29 69.57c-0.09,0.13 -0.31,0.4 -0.39,0.5 -0.07,0.1 -0.24,0.35 -0.39,0.5 1.41,-5.83 21.61,-35.23 25.41,-41.02 4.48,-6.83 18.05,-26.28 20.33,-32.51 -8.63,-5.2 -15.52,-16.8 -18.27,-24.42 -4.11,-11.41 -3.88,-21.33 -0.13,-35.7z"/>
  <path class="fil3" d="M218.66 320.34l-35.49 35.54c0.26,0.05 20.77,-19.85 22.64,-21.55 39.51,-36.57 22.82,-24.29 12.85,-13.99zm-129.41 18.5l-2.43 2.1 -2.55 1.71 -5.26 1.88 -1.82 1.03 -1.85 1.51c-11.43,10.97 -21.87,20.62 -27.99,39.93 -6.14,19.35 -4.65,42.04 3.91,59.37l2.7 4.55 1.08 1.91c7.19,16.92 31.22,35.96 56.98,38.87l2.38 1.15c19.06,-0.77 24.83,0.4 42.21,-6.58 14.02,-5.63 19.03,-12.96 28.31,-19.78 0.52,-0.72 1.79,-2.69 2.35,-3.65 4.65,-7.89 3.1,-4.28 7.53,-9.83 6.38,-18.51 13.45,-27.06 9.8,-52.79 -4.66,-32.82 -28.04,-58.49 -60.33,-66.7 -21.57,-5.49 -36.78,-1.53 -55.03,5.32z"/>
  <path class="fil2" d="M64.82 764.58c10.33,5.83 30.08,7.78 44.07,5.96 18.73,-2.43 24.24,-8.78 37.14,-13.94l28.58 33.9c15.73,18.9 68.54,83.91 83.43,99.68l2.31 -1.04c-4.66,-2.68 -4.1,-3.06 -8.17,-8.17 -24.07,-30.16 -52.6,-61.62 -77.21,-92.33 -7.23,-9.02 -23.34,-25.54 -27.24,-33.72 4.24,-4.72 6.87,-5.46 10.87,-10.25 8.96,-10.73 18.78,-24.45 20.01,-39.96l1.99 -4.25c-1.58,-26.24 1.2,-26.67 -8.25,-50.07l-4.06 -6.15 -0.8 -1.94 -1.91 -2.47 -1.01 -1.73 -1.28 -1.58c-4.47,-6.56 -7.74,-9.67 -14.13,-14.33l-1.36 -1.54c-1.98,-0.09 -1.49,0.36 -1,-1.71l-3.25 -1.26c-2.1,0.64 -1.64,1.1 -1.64,-1.02 -13.55,-7.19 -20.65,-10.12 -39.14,-12.55l11.62 -111.26 -2.38 -1.15c3.68,7.02 -10.08,94.83 -10.91,112.47 -15.3,-0.02 -38.44,3.79 -47.17,12.54l-3.4 1.58 -1.85 0.85 -1.49 1.37c-3.97,4.38 -6.03,5.09 -9.69,8.79 -2.84,2.87 -5.31,6.21 -7.63,9.38 -4.98,6.82 -9.61,13.22 -11.37,22.59 -0.74,3.16 1.11,1.38 -1.39,2.71 -8.99,35.12 0.41,54.14 15.17,76.38 3.02,1.92 6.26,5.77 9.62,9.01 5.99,5.78 6.07,4.11 10.29,8.9 1.63,1.85 20.93,8.45 9.46,5.52 -0.06,0.58 0.69,-1.24 3.15,0.79z"/>
  <path class="fil1" d="M346.02 715.28c14.68,-8.81 23.91,14.3 11.28,20.16 -13.87,6.43 -25.66,-11.53 -11.28,-20.16zm-121.88 -221.46c14.54,-6.69 22.49,14.11 10.49,20.48 -14.27,7.56 -25.85,-13.41 -10.49,-20.48zm-29.33 -40.81c-4.44,5.55 -2.89,1.94 -7.53,9.83 -0.56,0.96 -1.83,2.93 -2.35,3.65l3.27 -1.64c6.91,5.27 14.78,12.52 21.75,17.94 -13.55,15.47 -12.09,30.08 1.24,44.01l-8.63 11.15c-2.89,3.93 -5.29,7.93 -8.08,11.79l-14 18.88c-0.19,0.22 -0.48,0.52 -0.67,0.74l-2.48 3.16c-5.5,7.7 -11.56,15.54 -16.72,23.19 -2.78,4.12 -12.57,20.32 -17.04,21.96l-1.64 -1.02c0,2.12 -0.46,1.66 1.64,1.02l3.25 1.26c-0.49,2.07 -0.98,1.61 1,1.71l1.36 1.54 -1.36 -1.54 -1 -1.71c1.29,-0.58 1.1,0.17 4.28,-4.16 1.9,-2.59 2.59,-3.9 4.11,-5.99l42.22 -57.62c2.97,-4.05 5.58,-7.48 8.38,-11.53 1.63,-2.36 1.73,-2.95 4.19,-5.86l4.45 -5.03c10.3,3.54 22.68,6.62 33.86,-3.57 3.29,-2.99 2.66,-4.25 6.03,-7.57l38.61 31.01c-9.93,6.94 -9.97,15.13 -4.56,26.77l-88.89 52.04c-4.88,2.82 -10.66,5.62 -15.47,8.62 -4.96,3.09 -9.61,6.74 -15.72,8.17l-0.8 -1.94 -1.91 -2.47 -1.01 -1.73 -1.28 -1.58 1.28 1.58 1.01 1.73 1.91 2.47 0.8 1.94 4.06 6.15c-0.6,-6.06 3.7,-6.22 15.77,-12.75 7.26,-3.93 12.44,-7.45 18.84,-11.4l74.6 -43.41c13.39,-8.63 9.36,-0.86 22.66,-1.22 10.57,-0.29 16.37,-10.77 16.4,-10.92 0.09,-0.43 0.4,-0.51 0.65,-0.72l13.95 11.45c19.27,13.86 27.44,22.13 41.01,32.45 -12.53,11.58 -9.07,21.05 1.83,28.5l-19.52 58.69c-16.41,-1.35 -25.72,3.64 -30.28,15.32l-147.66 -15.92 -1.99 4.25c4.12,-2.55 3.58,-1.8 10.15,-1.11l138.17 15.73c-1.11,14.56 4.09,24.55 14.47,27.93 -1.26,8.24 -8.17,26.05 -11.26,34.94l-17.2 50.33c-4.54,12.47 -15.54,39.5 -17.23,49.77l-5.3 -0.4 8.05 2.91c1.19,-9.44 11.51,-34.42 15.64,-47.56l1 -3.19c0.11,-0.33 0.24,-0.71 0.36,-1.04l29.01 -83.56c18.5,0.03 29.74,-3.77 31.86,-24.35l68.49 7.99c1.23,6.67 -1.46,13.89 2.06,19.91l-0.32 -23.83 1.51 -6.12c-2.46,3.89 -1.68,1.3 -1.51,6.12l-69.72 -7.33c-4.81,-10.19 -5.86,-15.71 -15.68,-19.07l17.34 -52.16c2.79,-8.46 4.3,-6.84 5.95,-7.47 1.43,-0.55 1.97,-0.53 3.41,-0.97 4.71,-1.45 5.12,-1.25 8.6,-5.84 0.47,-0.61 1.36,-1.94 1.86,-2.64 0.14,-0.2 0.56,-0.38 0.66,-0.89 0.1,-0.51 0.43,-0.61 0.67,-0.89l40.25 31.55c7.12,6.43 20.98,13.17 25.13,21.48l-1.45 1.72c2.15,0 1.6,0.51 1.45,-1.72l3.51 -3.6 1.19 -1.66 1.38 -1.47 1.2 -1.65 1.53 -1.32c2.11,0.35 1.4,0.66 1.4,-1.74l-1.4 1.74c-2.19,-0.3 -1.75,-0.81 -1.53,1.32l-1.2 1.65 -1.38 1.47 -1.19 1.66 -66.2 -51.72c-7.24,-6.19 1.67,-0.95 -10.28,-15.75 1,-5.52 3.46,-20.28 9.81,-19.73l-6.5 -2.29 -7.13 21.69c-11.07,-0.17 -11.52,-4.46 -19.37,-10.25 -5.98,-4.41 -10.95,-8.53 -16.71,-13.22 -5.63,-4.59 -12.12,-8.27 -16.99,-12.95 -9.26,-8.92 -13.51,-7.85 -15.49,-14.53 1.05,-1.73 15.53,-14.84 21.67,-10.15 -1.51,-2.74 -3.01,-4.11 -4.55,-5.69 -4.68,4.48 -10.82,8.08 -17.8,9.69 -2.82,-6.93 -6.6,-10.68 -16.3,-10.77 -14.65,-0.13 -12.42,-4.89 -25.27,-14.83l-21.43 -16.69c2.37,-24.27 -1.33,-26.8 -16.93,-37.04l35.6 -120.87c2.52,-9.5 2.03,-12.41 6.04,-14.12l-6.99 -3.06c2.29,3.7 2.13,1.89 0.51,8.36 -0.72,2.88 -1.93,5.99 -2.83,8.79l-10.47 35.19c-0.49,1.85 -0.69,2.88 -1.13,4.62 -4.67,18.1 -22.25,68.99 -23.3,80.29 -10.63,-0.25 -15.86,1.47 -23.5,4.02l-23.31 -18.88c1.83,-4.21 -0.1,0 1.78,-2.88l3.35 -5.53z"/>
  <path class="fil1" d="M526.25 166.23c0,2.03 0.43,1.49 -1.73,1.1l-2 2.39 -1.73 1.05 -1.86 1.11 -1.38 1.29 -1.52 1.54c0.32,1.97 0.74,1.47 -1.26,1.49l-1.01 1.84c0.25,2.1 0.74,1.6 -1.33,1.62 -1.69,2.72 -1.25,2.13 -3.53,3.84 -2.51,7.7 -5.89,11.23 -7.02,21.45 -1.14,10.36 -0.01,17.64 3.64,26.56 4.77,11.66 17.72,26 29.76,28.77l7.12 2.84c32.54,4.8 53.85,-11.11 62.23,-34.37 10.04,-27.89 -8.5,-59.17 -28.06,-65.01l-3.1 -1.71 -2.89 -0.97 -3.27 -1.24c-21.59,-2.69 -24.84,-0.48 -41.05,6.4z"/>
  <path class="fil1" d="M924.35 47.05l-3.12 1.14c-2.79,1.31 -4.27,1.58 -7.06,2.96l-5.01 2.19 -2.26 2.1 -1.78 0.95 -2.03 0.97 -1.35 1.37c0.54,2.38 0.93,1.8 -1.54,1.39 0.42,2.47 1.02,2.09 -1.35,1.57l-1.38 1.27c0.36,2.37 0.99,1.91 -1.18,1.93l-0.96 1.74c0.23,2.46 0.89,1.97 -1.36,1.97 -7.1,11.22 -9.94,21.94 -8.14,38.37l1.33 5.44 1.35 2.33c2.87,11.65 12.65,22.78 21.15,27.63 13.95,7.96 24.13,7.63 41.67,6.02 3.12,-2.34 2.57,-0.99 6.5,-3.35 11.12,-3.55 17.88,-10.87 23.56,-19.48 6.35,-9.63 8.97,-19.91 7.43,-34.84l-1.03 -3.51c-1.18,-14.65 -13.1,-26.8 -20.77,-32.13 -11.65,-8.09 -25.31,-10.96 -42.66,-8.03z"/>
  <path class="fil1" d="M563.53 518.08c19.34,-8.33 29.17,19.57 12.54,27.23 -17.58,8.1 -32.05,-18.83 -12.54,-27.23zm-150.78 -231.67c-3.32,2.78 -3.62,4.17 -5.04,7.99 -1.95,-0.32 -1.37,-0.65 -1.29,1.47 2,0 1.58,0.5 1.29,-1.47l52.61 29.4c6.23,3.49 11.63,7.03 17.65,9.64 -2.26,15.34 -2.62,19.07 10.09,25.41l2.75 1.41c-3.2,6.85 -6.22,16.15 -10.3,23.86 -1.71,3.23 -3.76,7.84 -5.35,11.81l-7.09 11.22c2.07,2.33 -0.29,1.59 4.27,1.75 3.46,-9.85 9.73,-24.48 14.42,-32.82 12.29,-21.81 1.55,-13.04 15.34,-20.17 5.16,-2.67 2.22,-2.01 5.82,-4.9l40.52 22.85c8.7,4.67 34.23,18.16 39.82,23.06 1.38,15.68 -3.63,15.48 10.63,24.6l-22.58 81.67c-19.01,-1.16 -27.09,5.56 -34.25,17.93l-21.57 -5.14 -1.03 3.88c5.79,-0.39 16.5,2.66 20.52,4.78 -4.95,17.99 9.08,33.73 23.77,36.39l-10.55 85.57 -3.65 1.16 7.42 1.51c-1.39,-8.83 5.94,-54.69 7.57,-67.35 3.33,-25.87 -2.03,-15.79 16.01,-22.21 10.07,-3.59 14.82,-9.88 18.14,-20.26 11.07,1.95 108.53,26.69 111.43,30.22l1.35 -4.48c1.84,-0.84 1.58,1.66 1.38,-2.88l1.23 -3.31 -1.23 3.31 -1.38 2.88 -111.8 -28.74c-0.35,-25.56 -8.69,-26.04 -20.4,-33.79l22.26 -79.05c3.69,-0.73 6.02,-0.43 9.61,-1.49 4.6,-1.35 3.67,-2.15 7.93,-3.5l59.52 51.66c5.61,5.35 9.74,8.41 15.13,13.34 4.46,4.08 9.22,8.75 14.36,12.77 5.78,4.53 9.14,8.45 14.99,13.52 11.92,10.32 12.41,7.04 12.92,14.19 -2.08,-0.14 -1.55,-0.64 -1.65,1.4l-0.89 1.77 -1.54 1.94c2.49,0 1.91,0.59 1.54,-1.94l0.89 -1.77c2.34,0.04 2,0.7 1.65,-1.4l2.94 -4.33c-7.3,-8.84 -23.21,-19.66 -29.87,-25.83l-88.9 -77.67c1.08,-8.92 2.71,-8.37 2.33,-20.8 10.26,-4.33 84.6,-48.66 102.35,-58.34 0.93,6.59 0.5,2.44 2.04,4.24 -2.86,-7.93 0.86,-2.55 -3.99,-5.87 -6.27,1.67 -19.16,10.42 -25.99,14.23l-74.29 43.3c-7.27,-2.42 -7.05,-7.68 -17.77,-7.57 -7.57,0.08 -11.59,4.58 -15.7,7.81l-50.73 -27.92c-3.08,-1.61 -5.91,-3.97 -9.27,-6.19 -5.48,-3.63 -14.36,-8.54 -19.34,-10.77 2.99,-13.54 -5.04,-11.39 0.16,-23.17 5.69,-12.89 26.4,-54.11 27.89,-62.31l4.55 0.21 -7.12 -2.84c-1.31,8.63 -11.2,26.43 -15.34,35.35 -4.97,10.72 -10.53,22.99 -14.78,33.18 -13.41,-6.41 -15.76,-4.38 -25.74,2.05 -8.48,-6.16 -39.71,-22.41 -51.63,-28.7 -7.07,-3.73 -10.62,-6.53 -16.98,-10.28 0.92,-4.61 -0.32,-1.14 1.93,-5.46z"/>
  <path class="fil1" d="M956.01 435.78c-3.19,-20.8 27.67,-23.48 29.69,-4.23 2.14,20.36 -27.08,21.23 -29.69,4.23zm25.09 -189.48c16.65,-8.99 23.45,14.4 11.42,20.24 -8.14,3.95 -20.33,-2.19 -17.15,-14.13 1.43,-5.36 3.17,-4.72 5.73,-6.11zm-29.78 -97.9c3.87,2.35 29.65,77.16 30.47,82.21 -7.74,2.51 -9.38,2.67 -14.1,8.07 -1.71,1.95 -3,4.01 -4.41,7.06l-3.61 6.99 -38.43 7.15c0.39,4.79 -0.42,4.14 1.74,7.28 0.37,-4.9 -0.73,-3.95 6.37,-5.35l31.88 -5.98c0.21,22.72 16.12,28.3 38.24,23.21 5.31,9.82 16.76,45.13 22.68,61.28 2.37,6.47 4.64,13.2 7.07,19.92 -6.4,8.68 -8.78,10 -2.18,21.36l1.24 2.23c-6.56,4.47 -29.57,28.23 -33.41,34.23l-5.68 -3.44c-9.33,-7.32 -16.37,-11.48 -31.04,-4.85l-8.9 -6.49c-0.21,-0.18 -0.51,-0.48 -0.72,-0.67l-13.52 -12.23c-0.22,-0.19 -0.54,-0.47 -0.75,-0.66 -0.21,-0.19 -0.51,-0.49 -0.72,-0.69 -0.2,-0.2 -0.49,-0.51 -0.68,-0.71l-5.51 -5.78c-10.55,-9.76 -19.96,-15.73 -31.52,-27.63l0.67 -2.18c2.2,0.26 1.58,0.74 1.81,-1.5 -2.67,0 -2.43,-0.8 -1.81,1.5l-0.67 2.18c-1.02,0.7 -2.59,1.9 -3.27,2.42l-1.5 1.36 -1.44 1.42 -1.71 1.13c-2.22,-0.37 -1.77,-0.87 -1.52,1.33l-2.94 4.18 -2.19 0.66c-2.32,-0.47 -1.73,-0.94 -1.73,1.44l1.73 -1.44 2.19 -0.66c1.89,-2.19 2.01,-2.66 2.94,-4.18l1.52 -1.33c2.17,0.36 1.73,0.9 1.71,-1.13l1.44 -1.42c2.07,0.08 1.66,0.61 1.5,-1.36l62.34 55.62c-21.18,24.14 -1.19,36.81 2.27,42.74 -3.25,5.42 -48.72,51.77 -54.83,57.12 0.89,3.05 -2.48,0.37 2.42,3.33 -0.3,2.34 -0.94,2 1.22,1.66 -0.19,2.13 -0.64,1.6 1.56,1.39 -0.27,1.88 -0.65,1.37 1.3,1.38 -0.17,2.35 -0.75,1.93 1.49,1.54 -0.21,2.04 -0.65,1.56 1.43,1.35 -0.24,2.39 -0.73,1.71 1.81,1.71 -0.26,-2.39 0.44,-1.93 -1.81,-1.71 0.23,-2.16 0.71,-1.72 -1.43,-1.35 0.21,-2.09 0.66,-1.53 -1.49,-1.54 0.17,-2 0.65,-1.59 -1.3,-1.38 0.27,-2.23 0.72,-1.7 -1.56,-1.39 0.17,-2.13 0.74,-1.72 -1.22,-1.66 3.58,-7.88 7.43,-9.03 13.34,-14.98l40.66 -43.39c12.64,2.35 20.32,4.05 31.8,-6.73l3.2 -2.98c5.48,2.63 29.61,26.4 35.51,32.01 3.55,3.37 9.69,6.41 10.68,10.55l-1.11 1.53 -1.23 1.69 -1.56 1.38c-1.92,-0.31 -1.38,-0.66 -1.28,1.39l-1.15 1.86 -1.1 1.66 -1.47 2.03c2.32,0 1.64,0.51 1.47,-2.03l1.1 -1.66 1.15 -1.86 1.28 -1.39c2.22,0.29 1.75,0.8 1.56,-1.38 2.07,0.13 1.49,0.54 1.23,-1.69l1.11 -1.53c2.07,-1.3 3.38,-1.99 5.23,-3.37l1.73 -1.23 2.4 -1.88 1.92 -0.88 2.6 -1.79c2.19,0.35 1.76,0.91 1.76,-1.13l-1.76 1.13 -2.6 1.79 -1.92 0.88 -2.4 1.88 -1.73 1.23c-6.23,-0.68 -3.45,-0.06 -7.7,-3.98l-29.58 -27.47c-2.94,-2.57 -10.66,-9.14 -13.33,-10.75 1.85,-22.25 1.13,-4.59 -0.05,-24.36l29.64 -30.07c4.42,-4.65 4.92,-7.74 12.34,-7.78 3.45,4.23 29.96,78.75 33.27,89.96 -1.5,1.66 0.66,0.59 -3.17,3.11l-2.32 0.5 2.32 -0.5c2.91,-0.69 11.53,-2.37 13.26,-3.61l-6.83 0.26c-10.68,-29.8 -24.01,-62.56 -32.28,-90.01 4.36,-2.93 5.36,-3.27 6.33,-9.85 1.3,-8.92 1.65,-7.38 6.71,-12.28 6.55,-6.34 10.2,-11.12 18.17,-18.76l72.02 -74.83c6.51,-6.84 11.37,-11.48 18.47,-18.61 3.41,-3.42 5.59,-6.15 8.87,-9.62 1.54,-1.63 2.57,-2.94 4.05,-4.41 3.83,-3.82 1.47,-2.74 7.13,-4.2l1.76 1.55c0,-2.62 0.68,-2.22 -1.76,-1.55 -1.22,-0.88 -3.61,-2.71 -4.82,-3.83 0.65,-2.55 1.2,-1.97 -1.37,-1.97l1.37 1.97c-1.74,3.54 -0.94,2.01 -3.74,5.13l-28.98 30.8c-10.94,11.73 -21.6,21.96 -32.96,34l-17.4 16.8c-8.44,9 -40.78,46.53 -50.24,51.71 -2.75,-2.92 -1.09,-2.01 -5.51,-3.84 -11.62,-4.79 -4.26,1.04 -16.29,-27.77l-19.86 -55.39c5.69,-10.85 11.82,-6.01 8.4,-31.34 5.52,-3.68 141.26,-29.49 159.42,-32.81l1.35 2.62 -1.35 -2.62 -0.33 -16.05c-2.65,5.52 -1.72,6.62 -1.12,13.04l-159.63 31.77c-7.78,-7.91 -8.13,-10.34 -23.79,-12.2 -5.55,-14.06 -10.57,-29.07 -15.87,-43.78l-11.81 -32.43c-1.87,-5.21 -2.82,-4.76 -0.13,-8.78 -3.93,2.36 -3.38,1.01 -6.5,3.35z"/>
  <path class="fil4" d="M260.35 889.15l-2.31 1.04c-6.71,10.74 -14.29,14.52 -12.46,34.82l1.36 5.79c6.11,21.67 32.25,35.71 56.58,22.08 5.25,-2.89 2.21,-0.76 5.86,-4.7 3.23,-3.49 2.21,-2.81 6.37,-5.62 4.88,-11.98 9.74,-19.65 4.35,-35.34 -3.81,-11.1 -9.42,-19.26 -21.63,-22.41l-8.05 -2.91c-14.26,-1.49 -20.17,1.91 -30.07,7.25z"/>
  <path class="fil2" d="M641.37 943.53l10.14 10.46c5.51,6.88 18.33,10.16 29.9,8.23 10.78,-1.8 18.61,-8.26 23.39,-14.52l1.19 -1.92c-0.54,-2.47 -1.21,-2.27 1.11,-1.5 -0.33,-2.74 -0.98,-2.08 1.7,-2.17 2.23,-11.37 5.43,-14.93 1.44,-28.39l-2.22 -3.06c-1.71,-4.62 -0.09,-1.52 -3.05,-5.05 -2.61,0.51 -1.87,0.83 -1.13,-1.88l-3.92 -6.01c-15.33,-13.89 -40.58,-13.77 -55.23,5.29 -10.04,13.05 -7.55,26.35 -3.31,40.53z"/>
  <path class="fil1" d="M1170.18 197.43l0.33 16.05 1.35 2.62 4.44 8.13c2.57,0 2.02,-0.59 1.37,1.97 1.22,1.12 3.6,2.96 4.82,3.83 2.44,-0.67 1.76,-1.07 1.76,1.55 2.64,3.07 0.06,0.88 3.59,1.89l12.42 4.06c20.31,1.37 35.7,-13.65 36.23,-32.52 0.57,-20.58 -15.52,-35.54 -35.8,-34.29l-3.53 0.15c-12.89,3.5 -25.99,13.34 -26.99,26.57z"/>
  <path class="fil2" d="M633.54 762.22l-2.73 9.11c9.8,-0.54 60.95,17.13 74.23,20.21 -8.92,41.68 37.53,41.66 40.06,12.59 2.49,0.43 4.95,0.83 7.36,1.46l37.03 11.12c13.94,4.1 29.51,9.56 43.39,12.73l2.56 -6.11 -2.68 2.85c-13.03,-2.28 -29.57,-8.87 -43.06,-12.61l-38.5 -11.33c-1.39,-0.48 -2.82,-0.96 -4.22,-1.44 -1.35,-4.5 -1.31,-6.56 -3.74,-10.4 -2.76,-4.36 -3.84,-3.21 -5.22,-6.98l25.77 -54.87c1.61,-3.32 2.95,-6.27 4.5,-9.62 2.21,-4.81 2.04,-5.71 5.15,-8.34 -1.54,-1.33 -2.5,-1.98 -4.32,-3.05 -1.27,6.92 -29.49,66.48 -34.67,75.04 -16.66,-5.68 -19.47,0.71 -30,5.88l-71.78 -20.89 0.86 -5.33z"/>
  <path class="fil5" d="M563.53 518.08c-46.81,20.16 47.21,-20.33 0,0z"/>
 </g>
</svg>
