<?xml version="1.0" encoding="UTF-8"?>
<!DOCTYPE svg PUBLIC "-//W3C//DTD SVG 1.1//EN" "http://www.w3.org/Graphics/SVG/1.1/DTD/svg11.dtd">
<!-- Creator: CorelDRAW -->
<svg xmlns="http://www.w3.org/2000/svg" xml:space="preserve" width="135.405mm" height="132.761mm" version="1.1" style="shape-rendering:geometricPrecision; text-rendering:geometricPrecision; image-rendering:optimizeQuality; fill-rule:evenodd; clip-rule:evenodd"
viewBox="0 0 2256.34 2212.28"
 xmlns:xlink="http://www.w3.org/1999/xlink"
 xmlns:xodm="http://www.corel.com/coreldraw/odm/2003">
 <defs>
  <style type="text/css">
   <![CDATA[
    .fil0 {fill:#143370}
    .fil1 {fill:#2E71F0}
    .fil2 {fill:#9B9B9B}
   ]]>
  </style>
 </defs>
 <g id="Camada_x0020_1">
  <metadata id="CorelCorpID_0Corel-Layer"/>
  <path class="fil0" d="M884.82 134.3l107.88 108.99c-6.77,12.18 -9.9,16.04 -16.65,27.42 -20.14,33.98 -46.94,63.95 -50.36,78.49 -4.03,17.08 36.25,84.92 40.91,122.97l128.39 21.97 0.12 179.07 -127.97 25.22c-8.68,62.4 -44.59,95.08 -42.93,116.17 2.24,28.49 49.5,75.84 67.7,100.26l-127.16 131.15 -106.98 -69.11c-19.35,10.17 -33.76,18.02 -53.51,25.96 -74.46,29.98 -54.37,3.41 -77.03,110.5 140,-2.28 1246.69,9.29 1334.45,-4.12 44.83,-6.85 84.03,-22.46 120.67,-43.44 42.46,-24.31 82.66,-59.96 109.9,-103.05 5.27,-8.35 11.58,-15.51 17.04,-24.29 58.34,-93.81 62.47,-233.61 12.14,-333.05 -26.59,-52.54 -40.44,-63.95 -74.31,-97.02 -111.62,-108.98 -211.49,-87.1 -230.1,-105.44 -9.01,-16.29 -12.96,-39.96 -21.75,-59.22 -43.65,-95.72 -148.26,-173.01 -267.51,-172.22 -66.4,0.44 -91.67,22.39 -142.7,36.48 -30.03,-52.11 -50.08,-88.88 -99.14,-131.88 -92.46,-81.04 -252.59,-98.42 -368.2,-47.12 -32.26,14.31 -51.97,21.28 -73.75,44.19 -17.43,18.33 -44.65,48.92 -59.17,61.11z"/>
  <path class="fil1" d="M483.4 339.08c82.97,-16.9 136.83,8.37 194.15,45.99 129.63,85.08 144.32,309.88 -9.32,405.92 -127.29,79.56 -259.27,47.63 -346.05,-67.8 -60.15,-80.01 -54.07,-210.51 7.66,-288.14 32.44,-40.79 76.5,-80.27 153.56,-95.97zm-32.78 -181.44l-7 15.23 -14.3 7.1c-50.43,10.17 -90.99,36.37 -130.09,56.12 -37.04,-25.34 -66.12,-52.3 -107.41,-67.77l-79.25 81.78c20.53,35.93 59.05,85.91 67.58,109.24 -33.38,36.48 -41.11,90.27 -61.33,141.29l-117.01 23.67 -1.81 119.41 117.66 23.09c11.59,23.19 18.26,64.34 43.89,116.04 6.22,12.54 12.81,19.94 17.91,33.37 -21.02,30.39 -49.34,64.23 -65.48,99.94 16.74,34.98 53.93,54.46 76.41,84.84 20.6,-6.28 88.98,-52.49 108.84,-67.57 25.95,12.7 38.97,24.88 70.07,36.87 24.56,9.47 60.32,14.84 79.04,28.16l14.79 88.46 10.26 27.64 108.02 -0.51 14.49 -17.58 15.34 -102.76c62.82,-17.29 81.45,-25.65 131.98,-51.07 27.57,-13.87 36,1.11 58.11,18.59 16.68,13.18 37.07,22.8 56.38,37.22l85.72 -82.01 -53.93 -85.43c-19.98,-31.79 0.94,-24.64 25.89,-87.4 8.97,-22.55 14.74,-54.66 25.27,-73.59 32.03,-16.91 87.58,-11.04 118.31,-30.16l1.4 -105.81c-22.26,-28.93 -90.66,-18.57 -120.89,-35.5 -9.01,-21.95 -13.02,-46.05 -22.69,-69.65 -35.89,-87.61 -53.42,-50.31 -10.02,-116.52l37.82 -60.51c-18.15,-34.78 -52.79,-56.52 -77.69,-84.24l-109.15 67.5c-45.72,-26.65 -86.28,-50.44 -146.11,-59.48l-21.7 -121.57 -122.75 0.08 -16.57 103.47z"/>
  <path class="fil0" d="M1101.49 1180.68l0.07 723.06c-11.19,17.49 2.87,4.61 -21.95,15.25 -33.11,14.19 -30.39,12.22 -63.45,43.42 -119.82,113.07 53.12,344.47 213.94,208.06 57.42,-48.7 65.74,-145.39 12.15,-204.21 -26.07,-28.61 -30.72,-33.73 -61.25,-45.36 -18.29,-6.97 -26.36,-2.55 -26.39,-28.91l0.08 -738.36 -53.07 -2.02 -0.13 29.07z"/>
  <path class="fil1" d="M718.15 1635.24c-41.25,18.22 -70.4,23.85 -89.02,51.64 -79.02,117.95 -4.78,247.7 116.89,247.66 83.55,-0.03 143.06,-59.57 149.87,-136.48 10.62,-119.99 -100.93,-151.11 -122.09,-164.74l-0.69 -479.99 -54.61 -3.55 -0.36 485.45z"/>
  <path class="fil1" d="M1483.09 1633.33c-38.72,22.47 -132.27,52.62 -122.79,164.75 6.56,77.63 71.97,136.95 149.9,136.54 164.86,-0.86 196.71,-209.65 77.06,-279.15 -16.18,-9.4 -30.94,-11.61 -48.88,-19.83l-0.38 -486.27 -55.03 2.66 0.12 481.29z"/>
  <path class="fil0" d="M336.57 1359.23c-42.31,20.86 -131.59,42.51 -121.81,162.42 14.56,178.53 283.39,184.21 299.28,0.21 6.19,-71.64 -37.56,-128.48 -98,-153.31 -24.33,-10 -15.09,0.92 -25.02,-17.39l-0.07 -332.34c-17.84,-10.27 -38.24,-17.57 -54.64,-22.23l0.24 362.64z"/>
  <path class="fil0" d="M1865.39 1351.16c-10.59,17.99 4.01,4.69 -21.19,15.63 -133.23,57.85 -136.19,217.78 -15.58,277.92 14.05,7.01 41.46,12.98 57.91,13.8 70.14,3.49 144.52,-50.15 154.37,-131.23 5.2,-42.8 -12.39,-83.07 -30.18,-112.13 -19.56,-31.95 -46.88,-34.48 -90.38,-55.75l-0.69 -210.2 -54.55 2.81 0.29 199.15z"/>
  <polygon class="fil2" points="595.89,1096.46 581.4,1114.03 473.38,1114.54 463.12,1086.9 469.13,1116.63 591.84,1117.3 "/>
  <polygon class="fil2" points="443.62,172.86 429.32,179.96 443.62,172.86 450.62,157.63 "/>
 </g>
</svg>
