<?xml version="1.0" encoding="UTF-8"?>
<!DOCTYPE svg PUBLIC "-//W3C//DTD SVG 1.1//EN" "http://www.w3.org/Graphics/SVG/1.1/DTD/svg11.dtd">
<!-- Creator: CorelDRAW -->
<svg xmlns="http://www.w3.org/2000/svg" xml:space="preserve" width="135.665mm" height="147.114mm" version="1.1" style="shape-rendering:geometricPrecision; text-rendering:geometricPrecision; image-rendering:optimizeQuality; fill-rule:evenodd; clip-rule:evenodd"
viewBox="0 0 3844.79 4169.24"
 xmlns:xlink="http://www.w3.org/1999/xlink"
 xmlns:xodm="http://www.corel.com/coreldraw/odm/2003">
 <defs>
  <style type="text/css">
   <![CDATA[
    .fil1 {fill:#143370}
    .fil0 {fill:#2E71F0}
   ]]>
  </style>
 </defs>
 <g id="Camada_x0020_1">
  <metadata id="CorelCorpID_0Corel-Layer"/>
  <path class="fil0" d="M445.59 3582.19c0,-18.65 -5.31,-16.28 11.51,-12.33 -1.47,-11.95 -3.73,-8.93 8.74,-6.97 -2.07,-13.12 -4.75,-10.3 8.49,-8.01 -1.64,-12.19 -4.27,-9.5 8.03,-7.93 -2.27,-13.41 -5.1,-10.68 8.32,-8.35 -1.65,-12.41 -4.24,-9.62 8.35,-7.79 -1.86,-12.7 -4.58,-9.99 8.18,-8.14 -1.86,-12.7 -4.58,-9.99 8.18,-8.14 -1.84,-12.49 -4.6,-9.87 7.86,-8.28 -2.27,-13.41 -5.1,-10.68 8.32,-8.36 -1.66,-12.41 -4.25,-9.62 8.35,-7.79 -1.86,-12.7 -4.58,-9.99 8.18,-8.14 -1.85,-12.7 -4.58,-9.99 8.18,-8.14 -1.84,-12.61 -4.61,-9.97 7.99,-8.22 -2.09,-12.96 -4.85,-10.23 8.16,-8.28 -1.91,-12.85 -4.62,-10.11 8.3,-8.07 -1.77,-12.58 -4.44,-9.83 8.25,-7.99 -1.86,-12.7 -4.58,-9.99 8.18,-8.14 -1.84,-12.61 -4.61,-9.97 7.99,-8.22 -2.1,-13.08 -4.86,-10.33 8.28,-8.24 -1.76,-12.43 -4.4,-9.7 8.14,-8 -2.01,-13 -4.8,-10.3 8.22,-8.25 -1.77,-12.58 -4.44,-9.83 8.25,-7.99 -1.85,-12.59 -4.57,-9.89 8.06,-8.18 -1.98,-12.78 -4.82,-10.19 7.9,-8.38 -2.18,-13.16 -4.94,-10.42 8.28,-8.25 -1.8,-12.59 -4.44,-9.83 8.28,-7.94 -1.91,-12.76 -4.64,-10.05 8.18,-8.14 -1.91,-12.76 -4.64,-10.04 8.18,-8.14 -1.9,-12.66 -4.67,-10.03 7.98,-8.24 -2.19,-13.28 -4.95,-10.51 8.4,-8.21 -1.66,-12.41 -4.25,-9.62 8.34,-7.79 -1.86,-12.7 -4.58,-9.99 8.18,-8.14 -1.86,-12.7 -4.58,-9.99 8.18,-8.14 -1.85,-12.7 -4.58,-9.99 8.18,-8.14 -1.84,-12.62 -4.61,-9.98 7.99,-8.22 -2.1,-13.08 -4.86,-10.33 8.28,-8.24 -1.76,-12.55 -4.41,-9.79 8.26,-7.96 -1.86,-12.7 -4.58,-9.99 8.17,-8.14 -1.85,-12.7 -4.58,-9.99 8.18,-8.14 -1.84,-12.61 -4.61,-9.97 7.99,-8.22 -2.1,-13.08 -4.86,-10.33 8.28,-8.24 -1.76,-12.55 -4.41,-9.8 8.26,-7.96 -1.85,-12.7 -4.58,-9.99 8.18,-8.14 -1.86,-12.7 -4.58,-9.99 8.18,-8.14 -1.86,-12.7 -4.58,-9.99 8.18,-8.14 -1.84,-12.61 -4.61,-9.97 7.99,-8.22 -2.1,-13.08 -4.86,-10.33 8.28,-8.24 -1.76,-12.55 -4.41,-9.79 8.26,-7.96 -1.86,-12.7 -4.58,-9.99 8.18,-8.14 -1.86,-12.7 -4.58,-9.99 8.18,-8.14 -1.86,-12.7 -4.58,-9.99 8.18,-8.14 -1.84,-12.62 -4.61,-9.98 7.99,-8.22 -2.1,-13.08 -4.86,-10.33 8.28,-8.24 -1.76,-12.55 -4.42,-9.79 8.26,-7.96 -1.86,-12.7 -4.58,-9.99 8.18,-8.14 -1.86,-12.7 -4.58,-9.99 8.18,-8.14 -1.85,-12.7 -4.58,-9.99 8.18,-8.14 -1.84,-12.61 -4.61,-9.97 7.99,-8.22 -2.1,-13.08 -4.86,-10.33 8.28,-8.24 -1.76,-12.55 -4.42,-9.8 8.26,-7.96 -1.85,-12.7 -4.58,-9.99 8.18,-8.14 -1.86,-12.7 -4.58,-9.99 8.18,-8.14 -1.84,-12.61 -4.61,-9.98 7.99,-8.22 -2.1,-13.08 -4.86,-10.33 8.28,-8.24 -1.76,-12.55 -4.41,-9.8 8.26,-7.96 -1.86,-12.7 -4.58,-9.99 8.18,-8.14 -1.86,-12.7 -4.58,-9.99 8.18,-8.14 -1.86,-12.7 -4.58,-9.99 8.18,-8.14 -1.84,-12.61 -4.61,-9.98 7.99,-8.22 -2.1,-13.08 -4.86,-10.33 8.28,-8.24 -1.76,-12.55 -4.41,-9.79 8.26,-7.96 -1.86,-12.7 -4.58,-9.99 8.18,-8.14 -1.86,-12.7 -4.58,-9.99 8.18,-8.14 -1.86,-12.7 -4.58,-9.99 8.18,-8.14 -1.84,-12.62 -4.61,-9.98 7.99,-8.22 -2.1,-13.08 -4.86,-10.33 8.28,-8.24 -1.76,-12.55 -4.41,-9.79 8.26,-7.96 -1.86,-12.7 -4.58,-9.99 8.18,-8.14 -1.85,-12.7 -4.58,-9.99 8.18,-8.14 -1.86,-12.7 -4.58,-9.99 8.18,-8.14 -1.84,-12.61 -4.61,-9.98 7.99,-8.22 -2.1,-13.08 -4.86,-10.33 8.28,-8.24 -1.76,-12.55 -4.41,-9.8 8.26,-7.96 -1.86,-12.7 -4.58,-9.99 8.18,-8.14 -1.86,-12.7 -4.58,-9.99 8.18,-8.14 -1.86,-12.7 -4.58,-9.99 8.18,-8.14 -1.84,-12.61 -4.61,-9.98 7.99,-8.22 -2.1,-13.08 -4.86,-10.33 8.28,-8.24 -1.76,-12.55 -4.41,-9.79 8.26,-7.96 -1.86,-12.7 -4.58,-9.99 8.18,-8.14 -1.86,-12.7 -4.59,-9.99 8.18,-8.14 -1.86,-12.7 -4.58,-9.99 8.18,-8.14 -1.84,-12.62 -4.61,-9.98 7.99,-8.22 -2.1,-13.08 -4.86,-10.33 8.28,-8.24 -1.76,-12.55 -4.42,-9.79 8.26,-7.96 -1.86,-12.7 -4.58,-9.99 8.18,-8.14 -1.85,-12.7 -4.58,-9.99 8.18,-8.14 -1.86,-12.7 -4.58,-9.99 8.18,-8.14 -1.84,-12.61 -4.61,-9.98 7.99,-8.22 -2.1,-13.08 -4.86,-10.33 8.28,-8.24 -1.76,-12.55 -4.41,-9.8 8.26,-7.96 -1.85,-12.7 -4.58,-9.99 8.18,-8.14 -1.86,-12.7 -4.58,-9.99 8.18,-8.14 -1.86,-12.7 -4.58,-9.99 8.18,-8.14 -1.85,-12.61 -4.61,-9.98 7.99,-8.22 -2.1,-13.08 -4.86,-10.33 8.28,-8.24 -1.76,-12.55 -4.41,-9.79 8.26,-7.96 -1.86,-12.7 -4.58,-9.99 8.18,-8.14 -1.86,-12.7 -4.58,-9.99 8.18,-8.14 -1.84,-12.61 -4.61,-9.97 7.99,-8.22 -2.1,-13.08 -4.86,-10.34 8.28,-8.24 -1.76,-12.55 -4.41,-9.79 8.26,-7.96 -1.86,-12.7 -4.58,-9.99 8.18,-8.14 -1.86,-12.7 -4.58,-9.99 8.18,-8.14 -1.86,-12.7 -4.58,-9.99 8.18,-8.14 -1.84,-12.61 -4.61,-9.98 8,-8.22 -2.1,-13.08 -4.86,-10.33 8.28,-8.24 -1.76,-12.55 -4.41,-9.79 8.26,-7.96 -1.86,-12.7 -4.58,-9.99 8.18,-8.14 -1.85,-12.7 -4.58,-9.99 8.18,-8.14 -1.86,-12.7 -4.58,-9.99 8.18,-8.14 -1.84,-12.61 -4.61,-9.97 7.99,-8.22 -2.1,-13.08 -4.86,-10.33 8.28,-8.24 -1.76,-12.55 -4.41,-9.79 8.26,-7.96 -1.86,-12.7 -4.58,-9.99 8.18,-8.14 -1.86,-12.7 -4.58,-9.99 8.18,-8.14 -1.84,-12.61 -4.61,-9.98 7.99,-8.22 -2.1,-13.08 -4.86,-10.33 8.28,-8.24 -1.76,-12.55 -4.41,-9.79 8.26,-7.96 -1.86,-12.7 -4.58,-9.99 8.18,-8.14 -1.86,-12.7 -4.58,-9.99 8.18,-8.14 -1.86,-12.7 -4.58,-9.99 8.18,-8.14 -1.84,-12.61 -4.61,-9.98 7.99,-8.22 -2.1,-13.08 -4.86,-10.33 8.28,-8.24 -1.76,-12.55 -4.41,-9.79 8.26,-7.96 -1.86,-12.7 -4.58,-9.99 8.18,-8.14 -1.86,-12.7 -4.58,-9.99 8.18,-8.14 -1.85,-12.7 -4.58,-9.99 8.18,-8.14 -1.86,-12.7 -4.58,-9.99 8.18,-8.14 -1.86,-12.7 -4.59,-9.99 8.18,-8.14 -1.86,-12.7 -4.58,-9.99 8.18,-8.14 -1.85,-12.7 -4.58,-9.99 8.18,-8.14 -1.86,-12.7 -4.58,-9.99 8.18,-8.14 -1.84,-12.61 -4.61,-9.98 7.99,-8.22 -2.1,-13.08 -4.86,-10.33 8.28,-8.24 -1.76,-12.55 -4.41,-9.79 8.26,-7.96 -1.86,-12.7 -4.58,-9.99 8.18,-8.14 -1.86,-12.7 -4.58,-9.99 8.18,-8.14 -1.84,-12.61 -4.61,-9.97 7.99,-8.22 -2.1,-13.08 -4.86,-10.33 8.28,-8.24 -1.76,-12.55 -4.41,-9.79 8.26,-7.96 -1.86,-12.7 -4.58,-9.99 8.18,-8.14 -1.86,-12.7 -4.58,-9.99 8.18,-8.14 -1.86,-12.7 -4.59,-9.99 8.17,-8.14 -1.85,-12.7 -4.58,-9.99 8.18,-8.14 -1.85,-12.7 -4.58,-9.99 8.18,-8.14 -1.86,-12.7 -4.58,-9.99 8.18,-8.14 -1.86,-12.7 -4.58,-9.99 8.18,-8.14 -1.86,-12.7 -4.58,-9.99 8.18,-8.14 -1.84,-12.61 -4.61,-9.98 7.99,-8.22 -2.1,-13.08 -4.86,-10.33 8.28,-8.24 -1.76,-12.55 -4.42,-9.79 8.26,-7.96 -1.86,-12.7 -4.58,-9.99 8.18,-8.14 -1.86,-12.7 -4.58,-9.99 8.18,-8.14 -1.84,-12.62 -4.61,-9.98 8,-8.22 -2.1,-13.08 -4.86,-10.33 8.28,-8.24 -1.76,-12.55 -4.41,-9.79 8.26,-7.96 -1.85,-12.58 -4.57,-9.89 8.06,-8.18 -1.98,-12.79 -4.82,-10.19 7.9,-8.39 -2.18,-13.16 -4.94,-10.42 8.28,-8.24 -1.81,-12.71 -4.46,-9.93 8.39,-7.9 -1.76,-12.46 -4.43,-9.73 8.14,-8.03 -2,-12.88 -4.79,-10.2 8.11,-8.29 -1.9,-12.79 -4.68,-10.13 8.11,-8.18 -2.01,-12.96 -4.71,-10.17 8.35,-8.09 -1.76,-12.43 -4.4,-9.7 8.14,-8 -2,-13 -4.8,-10.3 8.22,-8.25 -1.77,-12.58 -4.44,-9.83 8.25,-7.99 -1.72,-14.74 -5.7,-13.57 7.67,-8.55l-4.32 -2.53c-22.35,-33.59 -115.11,-104.18 -156.16,-131.34 -605.67,-400.68 -1402.38,-151.47 -1676.45,503.22 -59.71,142.63 -92.63,315.45 -82.76,489.31 10.93,192.55 117.51,531.11 239.01,618.52 51.66,37.17 175.03,47.31 204.85,-8.81z"/>
  <path class="fil1" d="M936.62 1809.72c93.87,-1.86 266.87,68.12 340.33,109.36 104.68,58.76 231.19,119.68 208.42,230.56 -12.18,59.35 -364.98,391.12 -429.65,454.2 -151.99,148.25 -296.89,294.1 -446.99,444.46 -75.25,75.38 -145.5,145.88 -221.63,220.04 -66.9,65.17 -137.96,177.37 -289.34,93.93 24.08,86.11 105.81,233.34 195.03,262.01 65.58,21.07 134.26,-4.03 167.9,-37.09 407.45,-400.52 828.34,-832.97 1236.97,-1240.85l225.37 -228.14 -3.33 -6.23c-21.76,-37.04 -134.11,-119.24 -180.54,-148.44 -67.8,-42.65 -140.32,-81.32 -224.19,-110.96 -86.41,-30.54 -173.26,-52.49 -273.6,-61.68 -104.67,-9.58 -129.59,-8.1 -228.98,0.57 -12.71,1.11 -24.52,1.5 -37.24,3.97 -0.74,0.14 -16.92,4.28 -19.79,5.31 -18.52,6.69 -9.42,2.83 -18.72,8.97z"/>
  <path class="fil0" d="M1921.85 2113.48c-25.88,-15.56 13.94,32.25 0,0 148.37,140.87 346.62,276.71 632.11,319.68 287.02,43.2 573.38,-36.67 760.46,-157.11 566.25,-364.55 687.02,-1110.64 323.98,-1603 -30.95,-41.97 -92.44,-75.96 -172.3,-60.8 -62.95,11.94 -99.37,61.8 -132.77,95.13l-1289.09 1292.26c-18.07,18.06 -123.83,113 -122.4,113.84z"/>
  <path class="fil0" d="M766.85 4169.24l297.08 0c39.87,-30.14 47.41,-27.95 82.17,-62.98l794.14 -793.74c38.56,-38.52 118.39,-95.84 116.37,-177.42 -2.37,-95.73 -130.94,-190.97 -248.75,-61.89l-1013.7 1014.99c-23.36,22.76 -59.66,46.06 -27.3,81.04z"/>
  <path class="fil0" d="M849.44 1351.65c122.14,-60.99 228.25,-164.55 230.51,-350.01 2.17,-178.28 -110.32,-309.91 -232.12,-359.56 -119.66,39.48 -237,188.36 -235.11,359.61 1.82,164.98 119.54,314.43 236.73,349.96z"/>
  <path class="fil1" d="M847.82 642.08c121.8,49.66 234.29,181.28 232.12,359.56 -2.26,185.46 -108.37,289.01 -230.51,350.01 106.5,70.71 295.43,25.23 378.21,-38.46 212.39,-163.4 222.81,-464.51 -5.1,-634.66 -88.45,-66.04 -264.88,-101.84 -374.73,-36.45z"/>
  <path class="fil1" d="M3271.38 0l-291.08 0c-102.24,57.2 -211.26,183.9 -296.71,269.35 -41.61,41.61 -110.95,91.45 -118.21,165.04 -8.15,82.61 59.56,149.78 149.56,136.3 71.07,-10.64 251.63,-214.11 308.47,-270.95l215.84 -215.74c26.76,-26.31 57.41,-42.73 32.13,-84z"/>
  <path class="fil1" d="M2667.66 3395.65c23.58,-41 -6.4,-84.68 -42.84,-91.3 -46.47,-8.44 -71.55,33.27 -92.68,54.48l-431.38 432.81c-23.75,44.31 6.33,87.92 45.89,92.99 44.59,5.72 70.63,-33.86 91.24,-54.61 75.95,-76.44 409.53,-399.18 429.77,-434.38z"/>
  <path class="fil0" d="M2368.66 674.69c-46.91,16.36 -317.73,300.44 -372.82,356.36 -66.67,67.69 -13.03,144.56 52.08,117.67 26.22,-10.83 210.3,-202.58 244.3,-236.57 42.68,-42.68 79.92,-78.96 122.35,-122.03 62.08,-63.01 19.03,-138.08 -45.92,-115.43z"/>
  <path class="fil1" d="M3097.55 2978c127.66,23.33 131.65,273.76 2.12,296 90.88,78.97 249.89,-21.97 250.38,-147.07 0.48,-122.06 -150.4,-226.25 -252.5,-148.93z"/>
  <path class="fil0" d="M3099.67 3274c129.53,-22.24 125.54,-272.67 -2.12,-296 -46.98,27.44 -89.12,69.44 -88.86,148.93 0.23,72.31 43.44,129.23 90.98,147.07z"/>
  <path class="fil1" d="M3241.13 799.81c99.94,-9.95 124.77,96.58 156.33,176.74 117.76,299.15 79.94,595.95 -58.88,865.72 -73.17,142.2 -198.67,281.49 -323.8,378.06 -102.6,79.18 -362.99,196.79 -525.01,201.17 68.8,48.86 362.25,16.68 426.12,2.01 679.95,-117.89 1116.91,-760.23 844.1,-1545.69 -38.93,-96.17 -113.28,-260.85 -223.62,-280.19 -114.13,-20.01 -155.88,53.62 -231.25,129.42 -28.35,28.52 -48.97,42.22 -63.99,72.76z"/>
 </g>
</svg>
